<svg width="1484" height="669" viewBox="0 0 1484 669" fill="none" xmlns="http://www.w3.org/2000/svg">
<path d="M652.352 79.8789H506.145C504.554 79.8789 503.105 80.532 502.053 81.5842C501.001 82.6365 500.348 84.0859 500.348 85.6774V141.558C500.348 143.149 501.001 144.599 502.053 145.651C503.105 146.703 504.554 147.356 506.145 147.356H598.314C617.463 136.703 637.288 125.833 655.042 116.376C656.084 115.821 657.12 115.272 658.149 114.728V85.6774C658.149 84.0857 657.496 82.6365 656.444 81.5842C655.392 80.532 653.943 79.8789 652.352 79.8789ZM629.118 147.356H652.352C653.943 147.356 655.392 146.703 656.444 145.651C657.496 144.599 658.149 143.149 658.149 141.558V131.612C648.837 136.595 639.035 141.917 629.118 147.356ZM518.8 209.873C515.363 212.132 510.746 211.177 508.487 207.739C506.228 204.302 507.183 199.683 510.619 197.423C514.295 195 542.063 178.928 576.003 159.838V159.305C576.003 157.714 575.35 156.264 574.298 155.212C573.246 154.16 571.797 153.506 570.206 153.506H423.999C422.408 153.506 420.959 154.16 419.907 155.212C418.855 156.264 418.202 157.714 418.202 159.305V215.185C418.202 216.777 418.855 218.226 419.907 219.279C420.959 220.331 422.408 220.984 423.999 220.984H488.152H505.895H570.206C570.377 220.984 570.547 220.977 570.715 220.962C572.343 219.744 573.971 218.526 575.598 217.306C575.859 216.648 576.003 215.933 576.003 215.185V176.928C545.858 193.933 522.131 207.676 518.8 209.873ZM583.458 155.653L587.205 153.555C585.909 153.723 584.742 154.326 583.856 155.212C583.717 155.352 583.583 155.499 583.458 155.653ZM664.297 111.509C695.056 95.5527 719.156 85.4062 723.639 89.8304C733.819 99.8749 717.698 121.014 688.004 147.356H770.426C778.102 144.878 784.321 144.251 788.583 146.009L789.365 146.332L789.927 146.71C790.238 146.92 790.533 147.136 790.816 147.356H816.302C817.893 147.356 819.342 146.703 820.394 145.651C821.445 144.599 822.099 143.149 822.099 141.558V85.6774C822.099 84.0859 821.445 82.6365 820.394 81.5842C819.342 80.532 817.893 79.8789 816.302 79.8789H670.095C668.504 79.8789 667.055 80.532 666.003 81.5842C664.951 82.6365 664.297 84.0859 664.297 85.6774V111.509ZM680.942 153.506C657.379 173.714 626.97 197.317 595.584 220.984H652.102H655.197C684.267 198.577 714.834 176.422 739.953 161.871V159.305C739.953 157.714 739.3 156.264 738.248 155.212C737.196 154.16 735.747 153.506 734.155 153.506H680.942ZM587.409 227.134C582.709 230.661 577.999 234.184 573.298 237.691C548.263 256.365 525.321 276.219 506.525 294.611H563.255C569.004 290.096 577.358 283.29 587.478 275.045C603.954 261.622 624.965 244.506 647.261 227.134H587.948H587.409ZM500.338 300.761C483.893 317.385 471.172 332.514 463.787 344.076C459.399 350.947 457.141 355.789 457.489 357.946C457.654 358.975 458.364 356.057 460.854 355.466C475.555 351.974 505.381 335.667 554.99 300.761H500.338ZM746.178 158.362C749.416 156.59 752.546 154.965 755.55 153.506H751.898C750.307 153.506 748.858 154.16 747.806 155.212C746.966 156.052 746.381 157.145 746.178 158.362ZM794.98 153.506C796.208 158.46 794.026 164.759 789.047 172.149C781.427 183.457 765.95 199.356 746.557 217.43C746.852 218.125 747.279 218.752 747.806 219.279C748.858 220.331 750.307 220.984 751.898 220.984H816.051H833.794H851.314C870.759 203.839 888.628 188.923 903.902 177.257V159.305C903.902 157.714 903.249 156.264 902.197 155.212C901.145 154.16 899.696 153.506 898.105 153.506H794.98ZM736.008 227.134C714.3 246.863 689.028 268.53 664.765 289.33L664.144 289.862C664.362 291.036 664.937 292.09 665.753 292.906C666.805 293.958 668.254 294.611 669.845 294.611H671.316C705.792 266.202 739.793 238.574 760.553 227.134H751.898H736.008ZM651.439 300.761C622.526 325.594 596.461 348.286 581.971 363.337C582.046 363.812 582.179 364.268 582.363 364.698C601.993 351.796 632.312 326.786 663.078 301.405L663.858 300.761H651.439ZM787.202 227.134C787.579 227.943 787.9 228.841 788.16 229.829C791.156 241.201 769.351 267.421 742.415 294.611H772.098C789.015 278.197 805.757 262.351 821.849 247.548V232.932C821.849 231.341 821.195 229.891 820.143 228.839C819.092 227.787 817.642 227.134 816.051 227.134H787.202ZM735.896 301.117C708.518 328.127 677.644 354.997 662.393 368.239H697.957L700.279 366.662L701.46 365.436C713.995 352.45 726.813 339.41 739.702 326.523V306.56C739.702 304.968 739.049 303.519 737.997 302.467C737.407 301.876 736.691 301.412 735.896 301.117ZM654.667 374.977C654.303 375.301 653.995 375.579 653.746 375.808C646.485 382.479 634.398 393.125 620.115 405.705C607.329 416.968 592.605 429.686 578.307 441.968H588.698L589.331 441.518C598.147 435.261 614.332 424.429 635.135 410.506C642.289 405.718 649.998 400.558 658.149 395.089V380.289C658.149 378.698 657.496 377.248 656.444 376.196C655.935 375.687 655.333 375.271 654.667 374.977ZM571.067 448.182C541.047 473.928 514.787 496.232 515.172 496.775C515.846 497.726 531.02 483.605 575.452 451.461C575.164 450.851 574.771 450.297 574.298 449.824C573.439 448.965 572.316 448.371 571.067 448.182ZM664.297 390.961C672.112 385.71 680.288 380.203 688.732 374.49H670.095C668.504 374.49 667.055 375.144 666.003 376.196C664.951 377.248 664.297 378.698 664.297 380.289V390.961ZM745.851 320.394C752.493 313.791 759.145 307.237 765.779 300.761H751.648C750.057 300.761 748.608 301.415 747.556 302.467C746.504 303.519 745.851 304.968 745.851 306.56V320.394ZM827.997 241.917C833.55 236.849 839.018 231.913 844.378 227.134H833.794C832.203 227.134 830.754 227.787 829.702 228.839C828.65 229.891 827.997 231.341 827.997 232.932V241.917ZM910.051 172.635C919.09 165.949 927.081 160.566 933.764 156.744C935.91 155.517 937.97 154.437 939.94 153.506H915.848C914.257 153.506 912.808 154.16 911.756 155.212C910.704 156.264 910.051 157.714 910.051 159.305V172.635ZM964.205 153.506C964.612 154.015 964.99 154.57 965.336 155.176L966.3 156.863V158.888C966.3 172.753 947.971 194.87 919.414 220.984H980.001H1062.05C1063.65 220.984 1065.09 220.331 1066.15 219.279C1067.2 218.226 1067.85 216.777 1067.85 215.185V159.305C1067.85 157.714 1067.2 156.264 1066.15 155.212C1065.09 154.16 1063.65 153.506 1062.05 153.506H964.205ZM912.585 227.134C889.492 247.628 860.749 270.28 829.993 293.178C831.014 294.069 832.345 294.611 833.794 294.611H980.001C981.592 294.611 983.041 293.958 984.093 292.906C985.145 291.853 985.798 290.404 985.798 288.813V232.932C985.798 231.341 985.145 229.891 984.093 228.839C983.041 227.787 981.592 227.134 980.001 227.134H915.848H912.585ZM819.746 300.761C795.513 318.594 770.309 336.446 745.851 353.415V362.44C745.851 364.032 746.504 365.481 747.556 366.533C748.608 367.585 750.057 368.239 751.648 368.239H897.855C899.446 368.239 900.895 367.585 901.947 366.533C902.999 365.481 903.652 364.032 903.652 362.44V306.56C903.652 304.968 902.999 303.519 901.947 302.467C900.895 301.415 899.446 300.761 897.855 300.761H819.746ZM739.702 357.673C734.541 361.241 729.42 364.766 724.356 368.239H733.905C735.496 368.239 736.946 367.585 737.998 366.533C739.05 365.481 739.702 364.032 739.702 362.44V357.673ZM715.22 374.49C713.494 375.669 711.778 376.839 710.069 378.003C694.213 394.457 678.806 410.752 664.297 426.435V436.169C664.297 437.761 664.951 439.21 666.003 440.263C667.055 441.315 668.504 441.968 670.095 441.968H734.393C751.832 427.679 769.232 412.985 785.23 398.951C788.328 396.24 793.037 396.555 795.748 399.653C798.459 402.751 798.145 407.462 795.047 410.173C783.157 420.603 770.57 431.339 757.819 441.968H816.302C817.893 441.968 819.342 441.315 820.394 440.263C821.445 439.21 822.099 437.761 822.099 436.169V380.289C822.099 378.698 821.445 377.248 820.394 376.196C819.342 375.144 817.893 374.49 816.302 374.49H715.22ZM658.149 433.103C655.41 436.084 652.706 439.04 650.04 441.968H652.352C653.943 441.968 655.392 441.315 656.444 440.262C657.496 439.21 658.149 437.761 658.149 436.169V433.103ZM644.462 448.118C621.296 473.748 601.375 496.963 586.936 515.506C587.265 515.565 587.604 515.596 587.948 515.596H638.249C655.852 503.608 680.373 485.177 706.781 464.232C713.396 458.985 720.114 453.594 726.855 448.118H644.462ZM582.15 521.745C567.507 541.169 559.995 554.464 562.729 558.49C564.986 561.813 584.771 551.537 629.148 521.745H587.948H582.15ZM750.032 448.43C748.981 449.297 747.93 450.163 746.879 451.028C746.385 451.88 746.101 452.867 746.101 453.917V509.797C746.101 511.389 746.754 512.838 747.806 513.89C748.858 514.942 750.307 515.596 751.898 515.596H816.051H898.105C899.696 515.596 901.145 514.942 902.197 513.89C903.249 512.838 903.902 511.389 903.902 509.797V453.917C903.902 452.325 903.249 450.876 902.197 449.824C901.145 448.771 899.696 448.118 898.105 448.118H751.898C751.246 448.118 750.618 448.227 750.032 448.43ZM739.953 456.704C731.916 463.262 723.912 469.702 716.072 475.921C697.333 490.783 679.405 504.476 664.084 515.596H669.845H734.155C735.747 515.596 737.196 514.942 738.248 513.89C739.3 512.838 739.953 511.389 739.953 509.797V456.704ZM654.656 522.344C651.696 524.431 648.866 526.393 646.184 528.214C586.955 568.455 557.939 577.95 550.4 566.847C545.926 560.259 552.865 544.083 567.765 521.745H505.895C504.304 521.745 502.855 522.399 501.803 523.451C500.751 524.503 500.098 525.952 500.098 527.544V583.424C500.098 585.016 500.751 586.465 501.803 587.517C502.855 588.569 504.304 589.223 505.895 589.223H652.102C653.693 589.223 655.142 588.569 656.194 587.517C657.246 586.465 657.899 585.016 657.899 583.424V527.544C657.899 525.952 657.246 524.503 656.194 523.451C655.746 523.004 655.227 522.628 654.656 522.344ZM572.208 515.235C573.43 513.484 574.697 511.698 576.002 509.883L576.003 509.797V468.992C527.687 501.971 506.893 510.888 503.018 505.425C498.69 499.324 521.558 475.227 550.541 448.118H423.999C422.408 448.118 420.959 448.771 419.907 449.823C418.855 450.875 418.202 452.325 418.202 453.917V509.797C418.202 511.389 418.855 512.838 419.907 513.89C420.959 514.942 422.408 515.596 423.999 515.596H505.895H570.206C570.908 515.596 571.583 515.468 572.208 515.235ZM582.151 501.511C594.148 485.481 608.901 467.403 625.564 448.118H605.971C602.879 450.237 600.202 452.097 597.979 453.674C592.421 457.619 587.152 461.31 582.151 464.767V501.511ZM630.907 441.968C638.456 433.324 646.361 424.462 654.55 415.454L643.433 422.896C632.556 430.175 622.956 436.601 615.015 441.968H630.907ZM557.163 441.968C574.719 425.772 593.848 408.922 610.24 394.484C618.803 386.941 626.592 380.081 632.882 374.49H594.505C588.902 378.342 583.92 381.47 579.724 383.679C573.011 387.213 568.192 388.63 564.881 388.552C560.132 388.439 557.212 386.215 555.789 382.405C554.889 379.991 554.999 377.307 555.904 374.49H506.145C504.554 374.49 503.105 375.144 502.053 376.196C501.001 377.248 500.348 378.698 500.348 380.289V436.169C500.348 437.761 501.001 439.21 502.053 440.263C503.105 441.315 504.554 441.968 506.145 441.968H557.163ZM639.875 368.239C641.281 366.971 642.541 365.827 643.637 364.82C644.625 363.912 647.501 361.416 651.665 357.801C664.564 346.603 690.729 323.887 715.547 300.761H687.298C682.397 304.791 677.465 308.86 672.544 312.919C647.486 333.591 622.719 354.021 603.295 368.239H639.875ZM722.104 294.611C747.085 271.012 769.312 248.01 773.222 237.434C758.904 243.044 728.114 267.324 694.791 294.611H722.104ZM558.929 368.239C561.114 364.651 564.091 360.772 567.225 357.302C569.657 354.61 572.52 351.641 575.753 348.432V306.56C575.753 305.706 575.565 304.892 575.228 304.16C571.079 307.464 567.865 309.952 565.777 311.427C518.89 344.547 488.148 362.035 470.291 368.239H558.929ZM581.901 342.462C594.303 330.645 610.599 316.294 628.573 300.761H587.698C586.107 300.761 584.658 301.415 583.606 302.467C582.554 303.519 581.901 304.968 581.901 306.56V342.462ZM635.704 294.611C642.024 289.171 648.507 283.614 655.065 277.992L657.899 275.562V237.581C635.277 255.343 613.64 272.968 596.885 286.618C593.396 289.46 590.113 292.135 587.066 294.611H635.704ZM664.047 270.289C680.918 255.814 697.996 241.098 713.701 227.134H671.309C668.885 229.007 666.464 230.887 664.049 232.769C664.048 232.823 664.047 232.878 664.047 232.932V270.289ZM720.581 220.984C727.407 214.847 733.911 208.892 739.953 203.205V177.719C722.102 189.067 700.808 204.554 679.31 220.984H720.581ZM746.101 197.356C760.037 183.942 770.913 172.319 776.66 163.791C778.577 160.945 781.186 160.001 781.635 159.442C775.24 158.2 762.432 163.967 746.101 173.895V197.356ZM446.803 368.239C444.648 366.406 443.318 363.726 442.764 360.284C441.813 354.381 444.867 346.022 451.224 336.069C457.475 326.282 467.27 314.135 479.724 300.761H423.749C422.158 300.761 420.709 301.415 419.657 302.467C418.605 303.519 417.951 304.968 417.951 306.56V362.44C417.951 364.032 418.605 365.481 419.657 366.533C420.709 367.585 422.158 368.239 423.749 368.239H446.803ZM485.555 294.611C488.251 291.818 491.052 288.981 493.949 286.111V232.932C493.949 231.341 493.296 229.891 492.244 228.839C491.192 227.787 489.743 227.134 488.152 227.134H423.999H341.945C340.354 227.134 338.905 227.787 337.853 228.839C336.801 229.891 336.148 231.341 336.148 232.932V288.813C336.148 290.404 336.801 291.853 337.853 292.906C338.905 293.958 340.354 294.611 341.945 294.611H485.555ZM500.098 280.108C518.131 262.76 539.439 244.431 562.457 227.134H505.895C504.304 227.134 502.855 227.787 501.803 228.839C500.751 229.891 500.098 231.341 500.098 232.932V280.108ZM582.151 212.386C609.245 192.013 635.738 171.64 657.746 153.506H617.945C605.735 160.251 593.57 167.041 582.151 173.464V212.386ZM666.571 146.15C668.977 144.119 671.316 142.121 673.581 140.162C698.942 118.224 715.356 102.615 713.18 100.468C712.302 99.6018 692.692 113.047 664.297 128.325V141.558C664.297 143.149 664.951 144.599 666.003 145.651C666.181 145.829 666.371 145.996 666.571 146.15ZM766.359 321.074C775.929 314.349 785.501 307.559 794.972 300.761H787.171C780.262 307.437 773.314 314.218 766.359 321.074ZM803.509 294.611C809.69 290.142 815.811 285.677 821.849 281.231V267.833C812.575 276.474 803.113 285.431 793.554 294.611H803.509ZM827.997 276.687C851.207 259.476 872.961 242.646 891.546 227.134H866.85C854.535 237.887 841.49 249.645 827.997 262.125V276.687ZM898.888 220.93C900.511 219.542 902.106 218.166 903.67 216.803C903.821 216.289 903.902 215.746 903.902 215.185V196.119C894.667 203.438 884.614 211.793 873.941 220.984H898.105C898.37 220.984 898.632 220.966 898.888 220.93ZM910.051 211.163C931.991 191.483 946.931 174.863 950.528 163.677C948.745 164.941 945.653 167.165 941.185 169.72C932.789 174.521 922.236 181.892 910.051 191.306V211.163ZM733.905 669H587.698C584.41 669 581.423 667.657 579.26 665.493C577.096 663.329 575.753 660.341 575.753 657.052V601.171C575.753 599.07 576.302 597.092 577.262 595.372H505.895C502.607 595.372 499.62 594.029 497.456 591.865C495.293 589.701 493.949 586.713 493.949 583.424V527.544C493.949 525.443 494.498 523.464 495.458 521.745H423.999C420.711 521.745 417.724 520.402 415.56 518.238C413.397 516.074 412.054 513.086 412.054 509.797V453.917C412.054 451.815 412.602 449.837 413.562 448.118H342.195C338.908 448.118 335.92 446.774 333.757 444.61C331.593 442.446 330.25 439.458 330.25 436.169V380.289C330.25 377 331.593 374.012 333.757 371.848C335.92 369.684 338.908 368.341 342.195 368.341H413.369C412.374 366.598 411.803 364.583 411.803 362.44V306.56C411.803 304.459 412.352 302.48 413.312 300.761H341.945C338.658 300.761 335.67 299.417 333.507 297.253C331.343 295.089 330 292.102 330 288.813V232.932C330 229.643 331.343 226.655 333.507 224.491C335.67 222.327 338.658 220.984 341.945 220.984H413.562C412.602 219.265 412.054 217.286 412.054 215.185V159.305C412.054 156.016 413.397 153.028 415.56 150.864C417.724 148.7 420.711 147.357 423.999 147.357H495.708C494.748 145.637 494.2 143.659 494.2 141.558V85.6774C494.2 82.3888 495.543 79.4005 497.706 77.2366C499.87 75.0727 502.857 73.7292 506.145 73.7292H577.319C576.324 71.9864 575.753 69.9716 575.753 67.8286V11.9482C575.753 8.65938 577.096 5.67134 579.26 3.50725C581.423 1.34355 584.411 0 587.698 0H733.905C737.193 0 740.181 1.34355 742.344 3.50725C742.492 3.65562 742.636 3.80779 742.777 3.96337C742.917 3.80779 743.061 3.65562 743.209 3.50725C745.373 1.34355 748.36 0 751.648 0H897.855C901.143 0 904.13 1.34355 906.294 3.50725C908.457 5.67134 909.8 8.65938 909.8 11.9482V67.8286C909.8 69.9716 909.23 71.9864 908.234 73.7292H980.251C983.539 73.7292 986.526 75.0727 988.69 77.2366C990.853 79.4005 992.197 82.3888 992.197 85.6774V141.558C992.197 143.659 991.648 145.637 990.688 147.357H1062.05C1065.34 147.357 1068.33 148.7 1070.49 150.864C1072.66 153.028 1074 156.016 1074 159.305V215.185C1074 218.474 1072.66 221.462 1070.49 223.626C1068.33 225.79 1065.34 227.134 1062.05 227.134H990.438C991.398 228.853 991.946 230.831 991.946 232.932V288.813C991.946 290.914 991.398 292.892 990.438 294.612H1061.8C1065.09 294.612 1068.08 295.955 1070.24 298.119C1072.41 300.283 1073.75 303.271 1073.75 306.56V362.44C1073.75 365.729 1072.41 368.717 1070.24 370.881C1068.08 373.045 1065.09 374.388 1061.8 374.388H990.63C991.626 376.131 992.197 378.146 992.197 380.289V436.169C992.197 439.458 990.853 442.446 988.69 444.61C986.526 446.774 983.539 448.118 980.251 448.118H908.542C909.502 449.837 910.051 451.815 910.051 453.917V509.797C910.051 513.086 908.707 516.074 906.544 518.238C904.381 520.402 901.393 521.745 898.105 521.745H826.488C827.449 523.464 827.997 525.443 827.997 527.544V583.424C827.997 586.713 826.654 589.701 824.49 591.865C822.327 594.029 819.339 595.372 816.051 595.372H744.342C745.302 597.092 745.851 599.07 745.851 601.171V657.052C745.851 660.341 744.507 663.329 742.344 665.493C740.181 667.657 737.193 669 733.905 669ZM587.698 662.85H733.905C735.496 662.85 736.945 662.197 737.997 661.145C739.049 660.093 739.702 658.643 739.702 657.052V601.171C739.702 599.58 739.049 598.131 737.997 597.079C736.945 596.026 735.496 595.373 733.905 595.373H587.698C586.107 595.373 584.658 596.026 583.606 597.079C582.554 598.131 581.901 599.58 581.901 601.171V657.052C581.901 658.643 582.554 660.093 583.606 661.145C584.658 662.197 586.107 662.85 587.698 662.85ZM751.898 521.745H734.155H669.845C668.254 521.745 666.805 522.399 665.753 523.451C664.701 524.503 664.047 525.952 664.047 527.544V583.424C664.047 585.016 664.7 586.465 665.752 587.517C666.804 588.569 668.254 589.223 669.845 589.223H816.051C817.643 589.223 819.092 588.569 820.144 587.517C821.195 586.465 821.849 585.016 821.849 583.424V527.544C821.849 525.952 821.195 524.503 820.143 523.451C819.092 522.399 817.643 521.745 816.051 521.745H751.898ZM915.598 368.239H1061.8C1063.4 368.239 1064.84 367.585 1065.9 366.533C1066.95 365.481 1067.6 364.032 1067.6 362.44V306.56C1067.6 304.968 1066.95 303.519 1065.9 302.467C1064.84 301.415 1063.4 300.761 1061.8 300.761H915.598C914.007 300.761 912.558 301.415 911.506 302.467C910.454 303.519 909.8 304.968 909.8 306.56V362.44C909.8 364.032 910.453 365.481 911.505 366.533C912.557 367.585 914.007 368.239 915.598 368.239ZM488.402 374.49H342.195C340.605 374.49 339.155 375.144 338.103 376.196C337.051 377.248 336.398 378.698 336.398 380.289V436.169C336.398 437.761 337.051 439.21 338.103 440.263C339.155 441.315 340.605 441.968 342.195 441.968H488.402C489.994 441.968 491.443 441.315 492.494 440.262C493.546 439.21 494.2 437.761 494.2 436.169V380.289C494.2 378.698 493.546 377.248 492.494 376.196C491.443 375.144 489.994 374.49 488.402 374.49ZM980.251 374.49H834.044C832.453 374.49 831.004 375.144 829.952 376.196C828.9 377.248 828.247 378.698 828.247 380.289V436.169C828.247 437.761 828.9 439.21 829.952 440.262C831.004 441.315 832.453 441.968 834.044 441.968H980.251C981.842 441.968 983.291 441.315 984.343 440.263C985.395 439.21 986.048 437.761 986.048 436.169V380.289C986.048 378.698 985.395 377.248 984.343 376.196C983.291 375.144 981.842 374.49 980.251 374.49ZM980.251 79.8789H834.044C832.453 79.8789 831.004 80.532 829.952 81.5842C828.9 82.6365 828.247 84.0857 828.247 85.6774V141.558C828.247 143.149 828.9 144.599 829.952 145.651C831.004 146.703 832.453 147.356 834.044 147.356H980.251C981.842 147.356 983.291 146.703 984.343 145.651C985.395 144.599 986.048 143.149 986.048 141.558V85.6774C986.048 84.0859 985.395 82.6365 984.343 81.5842C983.291 80.532 981.842 79.8789 980.251 79.8789ZM745.851 11.9482V67.8286C745.851 69.4202 746.504 70.8695 747.556 71.9217C748.608 72.9737 750.057 73.6271 751.648 73.6271H897.855C899.446 73.6271 900.895 72.9737 901.947 71.9217C902.999 70.8695 903.652 69.4202 903.652 67.8286V11.9482C903.652 10.3565 902.999 8.90726 901.947 7.85505C900.895 6.80284 899.446 6.14969 897.855 6.14969H751.648C750.057 6.14969 748.608 6.80284 747.556 7.85505C746.504 8.90726 745.851 10.3565 745.851 11.9482ZM587.698 73.6271H733.905C735.496 73.6271 736.945 72.9737 737.997 71.9217C739.049 70.8695 739.702 69.4202 739.702 67.8286V11.9482C739.702 10.3565 739.049 8.90726 737.997 7.85505C736.945 6.80284 735.496 6.14969 733.905 6.14969H587.698C586.108 6.14969 584.658 6.80284 583.606 7.85505C582.554 8.90726 581.901 10.3565 581.901 11.9482V67.8286C581.901 69.4202 582.554 70.8695 583.606 71.9217C584.658 72.9737 586.108 73.6271 587.698 73.6271Z" fill="white" fill-opacity="0.18"/>
<path d="M48.0469 247.812C53.9062 247.812 60.8398 247.617 68.8477 247.227C76.8555 246.836 83.6914 246.641 89.3555 246.641C95.8008 246.641 102.246 247.617 108.691 249.57C115.332 251.523 121.68 254.453 127.734 258.359C133.984 262.266 139.062 267.832 142.969 275.059C146.875 282.285 148.828 290.684 148.828 300.254C148.828 305.918 147.559 312.07 145.02 318.711C142.676 325.156 139.16 331.504 134.473 337.754C129.785 343.809 123.438 348.887 115.43 352.988C107.617 356.895 98.8281 358.848 89.0625 358.848C78.125 358.848 70.6055 356.113 66.5039 350.645C65.332 349.277 65.0391 347.031 65.625 343.906C65.8203 343.125 66.1133 342.832 66.5039 343.027C72.3633 345.176 78.9062 346.25 86.1328 346.25C95.8984 346.25 104.297 342.148 111.328 333.945C118.359 325.742 121.875 315.977 121.875 304.648C121.875 290.781 118.848 279.844 112.793 271.836C106.738 263.633 97.3633 259.531 84.668 259.531C75.8789 259.531 69.043 260.215 64.1602 261.582C63.1836 261.777 62.5 262.559 62.1094 263.926C61.7188 265.098 61.3281 268.027 60.9375 272.715C60.7422 277.402 60.6445 284.434 60.6445 293.809V398.398C60.6445 411.484 61.4258 419.98 62.9883 423.887C63.9648 426.426 67.3828 428.477 73.2422 430.039C79.2969 431.602 83.5938 432.383 86.1328 432.383C86.9141 432.383 87.3047 433.75 87.3047 436.484C87.3047 438.242 87.1094 439.707 86.7188 440.879C67.1875 439.902 54.4922 439.414 48.6328 439.414L12.8906 440.879C12.3047 440.293 12.0117 438.535 12.0117 435.605C12.0117 433.066 12.3047 431.797 12.8906 431.797C15.625 431.797 19.4336 431.211 24.3164 430.039C29.1992 428.867 32.1289 427.402 33.1055 425.645C34.4727 423.301 35.1562 414.121 35.1562 398.105V287.363C35.1562 275.84 34.4727 267.441 33.1055 262.168C32.5195 260.605 29.5898 259.141 24.3164 257.773C19.2383 256.406 15.4297 255.723 12.8906 255.723C12.1094 255.723 11.7188 254.551 11.7188 252.207C11.7188 249.668 12.1094 248.008 12.8906 247.227L48.0469 247.812ZM225.586 323.105C215.43 323.105 207.617 327.5 202.148 336.289C196.875 344.883 194.238 352.012 194.238 357.676C194.238 359.043 194.824 359.727 195.996 359.727H253.125C254.102 359.727 254.59 358.75 254.59 356.797C254.59 350.547 251.953 343.418 246.68 335.41C241.406 327.207 234.375 323.105 225.586 323.105ZM228.516 312.266C237.5 312.266 245.41 314.023 252.246 317.539C259.082 320.859 264.258 325.254 267.773 330.723C271.484 335.996 274.121 341.465 275.684 347.129C277.441 352.598 278.32 358.066 278.32 363.535C278.32 367.441 277.734 369.883 276.562 370.859C275.391 371.641 273.145 372.031 269.824 372.031H195.996C194.434 372.031 193.652 372.52 193.652 373.496C193.652 385.801 197.363 397.129 204.785 407.48C212.207 417.832 222.949 423.008 237.012 423.008C241.113 423.008 245.02 422.617 248.73 421.836C252.441 421.055 255.566 420.176 258.105 419.199C260.84 418.027 263.086 416.953 264.844 415.977C266.797 414.805 268.457 413.73 269.824 412.754L271.875 411.289C273.047 411.289 273.633 412.559 273.633 415.098C273.633 416.66 273.047 418.418 271.875 420.371C267.969 425.84 262.207 430.82 254.59 435.312C246.973 439.609 238.672 441.758 229.688 441.758C213.477 441.758 199.512 435.703 187.793 423.594C176.27 411.289 170.508 396.348 170.508 378.77C170.508 358.262 175.977 342.051 186.914 330.137C198.047 318.223 211.914 312.266 228.516 312.266ZM309.082 330.43H292.09C291.113 330.43 290.625 328.379 290.625 324.277C290.625 323.105 290.723 322.422 290.918 322.227C296.582 319.688 302.734 314.512 309.375 306.699C311.523 304.16 313.574 301.328 315.527 298.203C317.676 294.883 319.434 292.051 320.801 289.707C322.168 287.363 322.852 286.094 322.852 285.898C328.711 285.898 331.641 286.387 331.641 287.363V316.367C336.719 316.367 344.434 316.465 354.785 316.66C365.137 316.66 370.605 316.66 371.191 316.66C372.754 316.66 373.535 317.539 373.535 319.297C373.535 322.812 372.559 326.523 370.605 330.43H331.641V402.207C331.641 410.02 333.594 416.27 337.5 420.957C341.602 425.645 346.875 427.988 353.32 427.988C359.18 427.988 365.234 426.133 371.484 422.422C372.07 422.031 372.949 422.91 374.121 425.059C375.293 427.012 375.781 428.086 375.586 428.281C372.656 431.406 368.164 434.531 362.109 437.656C356.055 440.586 349.805 442.051 343.359 442.051C333.594 442.051 325.391 438.828 318.75 432.383C312.305 425.938 309.082 416.758 309.082 404.844V330.43ZM443.555 323.105C433.398 323.105 425.586 327.5 420.117 336.289C414.844 344.883 412.207 352.012 412.207 357.676C412.207 359.043 412.793 359.727 413.965 359.727H471.094C472.07 359.727 472.559 358.75 472.559 356.797C472.559 350.547 469.922 343.418 464.648 335.41C459.375 327.207 452.344 323.105 443.555 323.105ZM446.484 312.266C455.469 312.266 463.379 314.023 470.215 317.539C477.051 320.859 482.227 325.254 485.742 330.723C489.453 335.996 492.09 341.465 493.652 347.129C495.41 352.598 496.289 358.066 496.289 363.535C496.289 367.441 495.703 369.883 494.531 370.859C493.359 371.641 491.113 372.031 487.793 372.031H413.965C412.402 372.031 411.621 372.52 411.621 373.496C411.621 385.801 415.332 397.129 422.754 407.48C430.176 417.832 440.918 423.008 454.98 423.008C459.082 423.008 462.988 422.617 466.699 421.836C470.41 421.055 473.535 420.176 476.074 419.199C478.809 418.027 481.055 416.953 482.812 415.977C484.766 414.805 486.426 413.73 487.793 412.754L489.844 411.289C491.016 411.289 491.602 412.559 491.602 415.098C491.602 416.66 491.016 418.418 489.844 420.371C485.938 425.84 480.176 430.82 472.559 435.312C464.941 439.609 456.641 441.758 447.656 441.758C431.445 441.758 417.48 435.703 405.762 423.594C394.238 411.289 388.477 396.348 388.477 378.77C388.477 358.262 393.945 342.051 404.883 330.137C416.016 318.223 429.883 312.266 446.484 312.266ZM589.453 311.973C600.977 311.973 608.594 314.805 612.305 320.469C612.305 327.305 611.23 332.285 609.082 335.41C606.934 338.535 604.297 340.098 601.172 340.098C597.656 340.098 594.434 338.438 591.504 335.117C588.574 331.797 584.57 330.137 579.492 330.137C573.438 330.137 568.164 332.969 563.672 338.633C559.18 344.297 556.934 350.254 556.934 356.504V400.449C556.934 411.777 557.715 420.469 559.277 426.523C559.668 427.891 562.207 429.258 566.895 430.625C571.777 431.797 575.195 432.383 577.148 432.383C577.734 432.383 578.125 433.555 578.32 435.898C578.516 438.242 578.418 439.902 578.027 440.879C558.496 439.902 547.949 439.414 546.387 439.414C545.215 439.414 534.57 439.902 514.453 440.879C513.672 440.098 513.281 438.535 513.281 436.191C513.281 433.652 513.672 432.383 514.453 432.383C516.797 432.383 520.215 431.797 524.707 430.625C529.395 429.258 531.934 427.891 532.324 426.523C533.691 420.859 534.375 414.023 534.375 406.016V350.645C534.375 343.027 533.008 337.754 530.273 334.824C528.32 332.48 525.879 330.918 522.949 330.137C520.215 329.16 517.871 328.672 515.918 328.672C514.16 328.672 513.281 328.477 513.281 328.086C513.281 323.398 513.867 320.957 515.039 320.762C535.742 317.637 549.219 315.098 555.469 313.145C555.664 313.145 555.957 313.145 556.348 313.145C556.738 312.949 556.934 312.852 556.934 312.852C557.715 312.852 558.203 313.73 558.398 315.488C558.594 317.051 558.594 318.223 558.398 319.004L556.641 333.652C560.156 328.379 564.941 323.496 570.996 319.004C577.246 314.316 583.398 311.973 589.453 311.973ZM699.902 296.445C699.902 281.406 705.664 269.102 717.188 259.531C728.711 249.766 742.09 244.883 757.324 244.883C761.621 244.883 765.625 245.176 769.336 245.762C773.242 246.152 776.367 246.641 778.711 247.227C781.25 247.812 784.766 248.789 789.258 250.156C793.945 251.328 798.047 252.305 801.562 253.086C803.906 263.438 805.078 277.402 805.078 294.98C805.078 296.348 804.102 297.031 802.148 297.031C797.461 297.031 794.922 296.055 794.531 294.102C793.555 285.508 789.355 277.207 781.934 269.199C774.707 260.996 765.82 256.895 755.273 256.895C743.555 256.895 735.254 259.824 730.371 265.684C725.684 271.543 723.34 278.77 723.34 287.363C723.34 291.074 724.023 294.688 725.391 298.203C726.758 301.523 728.125 304.355 729.492 306.699C730.859 308.848 733.301 311.387 736.816 314.316C740.527 317.246 743.164 319.297 744.727 320.469C746.484 321.641 749.805 323.789 754.688 326.914C759.766 330.039 762.988 331.992 764.355 332.773C765.332 333.359 768.75 335.508 774.609 339.219C780.469 342.734 784.473 345.273 786.621 346.836C788.77 348.203 792.09 350.84 796.582 354.746C801.27 358.457 804.59 361.777 806.543 364.707C808.691 367.637 810.645 371.348 812.402 375.84C814.355 380.137 815.332 384.629 815.332 389.316C815.332 404.941 809.18 417.832 796.875 427.988C784.766 437.949 770.508 442.93 754.102 442.93C749.414 442.93 744.434 442.539 739.16 441.758C733.887 441.172 729.492 440.586 725.977 440C722.461 439.219 717.969 438.242 712.5 437.07C707.227 435.703 703.516 434.824 701.367 434.434C696.484 410.41 694.043 394.883 694.043 387.852C694.043 386.68 695.605 386.094 698.73 386.094C702.246 386.094 704.688 386.973 706.055 388.73C712.695 416.855 728.906 430.918 754.688 430.918C764.453 430.918 772.754 427.988 779.59 422.129C786.426 416.27 789.844 407.969 789.844 397.227C789.844 393.32 789.258 389.707 788.086 386.387C786.914 383.066 785.645 380.332 784.277 378.184C783.105 376.035 780.859 373.789 777.539 371.445C774.414 368.906 771.973 367.051 770.215 365.879C768.457 364.707 765.234 362.852 760.547 360.312C755.859 357.773 752.637 356.016 750.879 355.039C745.215 351.719 741.211 349.375 738.867 348.008C736.719 346.641 733.008 344.297 727.734 340.977C722.656 337.461 718.945 334.434 716.602 331.895C714.258 329.16 711.523 325.938 708.398 322.227C705.273 318.32 703.027 314.219 701.66 309.922C700.488 305.625 699.902 301.133 699.902 296.445ZM919.629 311.68C927.441 311.68 933.887 313.828 938.965 318.125C944.238 322.227 947.852 327.012 949.805 332.48C964.453 318.613 979.59 311.68 995.215 311.68C1019.82 311.68 1032.13 330.43 1032.13 367.93V400.449C1032.13 411.777 1032.91 420.469 1034.47 426.523C1034.86 427.891 1037.4 429.258 1042.09 430.625C1046.78 431.797 1050.1 432.383 1052.05 432.383C1052.64 432.383 1053.03 433.555 1053.22 435.898C1053.42 438.242 1053.32 439.902 1052.93 440.879C1033.4 439.902 1022.95 439.414 1021.58 439.414C1020.41 439.414 1009.77 439.902 989.648 440.879C988.867 440.098 988.477 438.535 988.477 436.191C988.477 433.652 988.867 432.383 989.648 432.383C991.992 432.383 995.41 431.797 999.902 430.625C1004.59 429.258 1007.13 427.891 1007.52 426.523C1008.89 420.859 1009.57 414.609 1009.57 407.773V374.668C1009.57 344.59 999.707 329.551 979.98 329.551C972.754 329.551 966.504 331.699 961.23 335.996C955.957 340.098 953.32 343.516 953.32 346.25L953.613 347.422C953.613 348.203 953.613 348.691 953.613 348.887C954.395 353.77 954.785 360.801 954.785 369.98V403.086C954.785 412.656 955.566 420.469 957.129 426.523C957.52 427.891 960.059 429.258 964.746 430.625C969.434 431.797 972.754 432.383 974.707 432.383C975.293 432.383 975.684 433.555 975.879 435.898C976.074 438.242 975.977 439.902 975.586 440.879C956.055 439.902 945.605 439.414 944.238 439.414C943.066 439.414 932.422 439.902 912.305 440.879C911.523 440.098 911.133 438.535 911.133 436.191C911.133 433.652 911.523 432.383 912.305 432.383C914.648 432.383 918.066 431.797 922.559 430.625C927.246 429.258 929.785 427.891 930.176 426.523C931.543 420.859 932.227 414.023 932.227 406.016V376.133C932.227 345.078 922.852 329.551 904.102 329.551C898.242 329.551 892.285 331.797 886.23 336.289C880.371 340.586 877.441 344.785 877.441 348.887V400.449C877.441 411.777 878.223 420.469 879.785 426.523C880.176 427.891 882.715 429.258 887.402 430.625C892.09 431.797 895.41 432.383 897.363 432.383C897.949 432.383 898.34 433.555 898.535 435.898C898.73 438.242 898.633 439.902 898.242 440.879C878.711 439.902 868.262 439.414 866.895 439.414C865.723 439.414 855.078 439.902 834.961 440.879C834.18 440.098 833.789 438.535 833.789 436.191C833.789 433.652 834.18 432.383 834.961 432.383C837.305 432.383 840.723 431.797 845.215 430.625C849.902 429.258 852.441 427.891 852.832 426.523C854.199 420.859 854.883 414.023 854.883 406.016V350.645C854.883 343.027 853.516 337.754 850.781 334.824C848.828 332.48 846.387 330.918 843.457 330.137C840.723 329.16 838.379 328.672 836.426 328.672C834.668 328.672 833.789 328.477 833.789 328.086C833.789 323.398 834.375 320.957 835.547 320.762C856.25 317.637 869.727 315.098 875.977 313.145C876.172 313.145 876.465 313.145 876.855 313.145C877.246 312.949 877.441 312.852 877.441 312.852C878.223 312.852 878.711 313.73 878.906 315.488C879.102 317.051 879.102 318.223 878.906 319.004C878.125 324.473 877.734 328.379 877.734 330.723C877.734 331.504 877.93 331.895 878.32 331.895C878.516 331.895 878.809 331.699 879.199 331.309C883.691 326.621 889.746 322.227 897.363 318.125C905.176 313.828 912.598 311.68 919.629 311.68ZM1089.26 276.816C1086.52 273.887 1085.16 270.371 1085.16 266.27C1085.16 262.168 1086.52 258.75 1089.26 256.016C1092.19 253.086 1095.7 251.621 1099.8 251.621C1103.91 251.621 1107.32 253.086 1110.06 256.016C1112.99 258.75 1114.45 262.168 1114.45 266.27C1114.45 270.371 1112.99 273.887 1110.06 276.816C1107.32 279.551 1103.91 280.918 1099.8 280.918C1095.7 280.918 1092.19 279.551 1089.26 276.816ZM1113.28 400.449C1113.28 411.777 1114.06 420.469 1115.62 426.523C1116.02 427.891 1118.55 429.258 1123.24 430.625C1127.93 431.797 1131.25 432.383 1133.2 432.383C1133.79 432.383 1134.18 433.555 1134.38 435.898C1134.57 438.242 1134.47 439.902 1134.08 440.879C1114.55 439.902 1104.1 439.414 1102.73 439.414C1101.37 439.414 1090.72 439.902 1070.8 440.879C1070.02 440.098 1069.63 438.535 1069.63 436.191C1069.63 433.652 1070.02 432.383 1070.8 432.383C1073.14 432.383 1076.56 431.797 1081.05 430.625C1085.74 429.258 1088.28 427.891 1088.67 426.523C1090.04 420.859 1090.72 414.023 1090.72 406.016V350.645C1090.72 343.027 1089.36 337.754 1086.62 334.824C1084.67 332.48 1082.23 330.918 1079.3 330.137C1076.56 329.16 1074.22 328.672 1072.27 328.672C1070.51 328.672 1069.63 328.477 1069.63 328.086C1069.63 323.398 1070.21 320.957 1071.39 320.762C1092.09 317.637 1105.57 315.098 1111.82 313.145L1112.4 312.852C1112.79 312.852 1113.09 312.852 1113.28 312.852C1114.06 312.852 1114.55 313.73 1114.75 315.488C1114.94 317.051 1114.94 318.223 1114.75 319.004C1113.77 326.816 1113.28 333.848 1113.28 340.098V400.449ZM1162.5 330.43H1145.51C1144.53 330.43 1144.04 328.379 1144.04 324.277C1144.04 323.105 1144.14 322.422 1144.34 322.227C1150 319.688 1156.15 314.512 1162.79 306.699C1164.94 304.16 1166.99 301.328 1168.95 298.203C1171.09 294.883 1172.85 292.051 1174.22 289.707C1175.59 287.363 1176.27 286.094 1176.27 285.898C1182.13 285.898 1185.06 286.387 1185.06 287.363V316.367C1190.14 316.367 1197.85 316.465 1208.2 316.66C1218.55 316.66 1224.02 316.66 1224.61 316.66C1226.17 316.66 1226.95 317.539 1226.95 319.297C1226.95 322.812 1225.98 326.523 1224.02 330.43H1185.06V402.207C1185.06 410.02 1187.01 416.27 1190.92 420.957C1195.02 425.645 1200.29 427.988 1206.74 427.988C1212.6 427.988 1218.65 426.133 1224.9 422.422C1225.49 422.031 1226.37 422.91 1227.54 425.059C1228.71 427.012 1229.2 428.086 1229 428.281C1226.07 431.406 1221.58 434.531 1215.53 437.656C1209.47 440.586 1203.22 442.051 1196.78 442.051C1187.01 442.051 1178.81 438.828 1172.17 432.383C1165.72 425.938 1162.5 416.758 1162.5 404.844V330.43ZM1322.46 311.68C1335.55 311.68 1344.92 316.367 1350.59 325.742C1356.25 335.117 1359.08 349.57 1359.08 369.102V400.742C1359.08 411.875 1359.86 420.469 1361.43 426.523C1361.82 427.891 1364.36 429.258 1369.04 430.625C1373.73 431.797 1377.05 432.383 1379 432.383C1379.59 432.383 1379.98 433.555 1380.18 435.898C1380.37 438.242 1380.27 439.902 1379.88 440.879C1360.35 439.902 1349.9 439.414 1348.54 439.414C1347.95 439.414 1337.7 439.902 1317.77 440.879C1316.99 440.098 1316.6 438.535 1316.6 436.191C1316.6 433.652 1316.99 432.383 1317.77 432.383C1320.12 432.383 1323.34 431.797 1327.44 430.625C1331.74 429.258 1334.08 427.891 1334.47 426.523C1335.84 420.859 1336.52 414.023 1336.52 406.016V374.961C1336.52 356.992 1333.98 344.98 1328.91 338.926C1324.02 332.676 1316.41 329.551 1306.05 329.551C1300.2 329.551 1294.34 331.895 1288.48 336.582C1282.81 341.074 1279.98 345.078 1279.98 348.594V400.449C1279.98 411.777 1280.76 420.469 1282.32 426.523C1282.71 427.891 1285.25 429.258 1289.94 430.625C1294.63 431.797 1297.95 432.383 1299.9 432.383C1300.49 432.383 1300.88 433.555 1301.07 435.898C1301.27 438.242 1301.17 439.902 1300.78 440.879C1281.25 439.902 1270.8 439.414 1269.43 439.414C1268.26 439.414 1257.62 439.902 1237.5 440.879C1236.72 440.098 1236.33 438.535 1236.33 436.191C1236.33 433.652 1236.72 432.383 1237.5 432.383C1239.84 432.383 1243.26 431.797 1247.75 430.625C1252.44 429.258 1254.98 427.891 1255.37 426.523C1256.74 420.859 1257.42 414.121 1257.42 406.309V279.16C1257.42 272.52 1256.84 266.27 1255.66 260.41C1254.69 257.285 1249.71 255.723 1240.72 255.723H1238.09C1236.91 255.723 1236.33 254.648 1236.33 252.5C1236.33 249.375 1236.91 247.812 1238.09 247.812C1243.95 247.227 1249.32 246.445 1254.2 245.469C1259.28 244.492 1263.18 243.516 1265.92 242.539C1268.85 241.562 1271.29 240.684 1273.24 239.902C1275.2 238.926 1276.56 238.145 1277.34 237.559L1278.81 236.68H1279.39C1280.18 236.68 1280.96 237.266 1281.74 238.438C1282.52 239.414 1283.01 240.391 1283.2 241.367C1281.05 247.617 1279.98 256.113 1279.98 266.855V331.016C1279.98 331.797 1280.18 332.188 1280.57 332.188C1280.76 332.188 1281.05 331.992 1281.45 331.602C1285.74 326.914 1291.8 322.422 1299.61 318.125C1307.62 313.828 1315.23 311.68 1322.46 311.68Z" fill="white"/>
<path d="M62.9766 618L59.5195 609.094H59.0508C56.043 612.883 52.9375 615.52 49.7344 617.004C46.5703 618.449 42.4297 619.172 37.3125 619.172C31.0234 619.172 26.0625 617.375 22.4297 613.781C18.8359 610.188 17.0391 605.07 17.0391 598.43C17.0391 591.477 19.4609 586.359 24.3047 583.078C29.1875 579.758 36.5312 577.922 46.3359 577.57L57.7031 577.219V574.348C57.7031 567.707 54.3047 564.387 47.5078 564.387C42.2734 564.387 36.1211 565.969 29.0508 569.133L23.1328 557.062C30.6719 553.117 39.0312 551.145 48.2109 551.145C57 551.145 63.7383 553.059 68.4258 556.887C73.1133 560.715 75.457 566.535 75.457 574.348V618H62.9766ZM57.7031 587.648L50.7891 587.883C45.5938 588.039 41.7266 588.977 39.1875 590.695C36.6484 592.414 35.3789 595.031 35.3789 598.547C35.3789 603.586 38.2695 606.105 44.0508 606.105C48.1914 606.105 51.4922 604.914 53.9531 602.531C56.4531 600.148 57.7031 596.984 57.7031 593.039V587.648ZM248.677 551.262C251.098 551.262 253.11 551.438 254.712 551.789L253.364 568.547C251.919 568.156 250.161 567.961 248.091 567.961C242.387 567.961 237.934 569.426 234.731 572.355C231.567 575.285 229.985 579.387 229.985 584.66V618H212.114V552.492H225.649L228.286 563.508H229.165C231.196 559.836 233.93 556.887 237.368 554.66C240.845 552.395 244.614 551.262 248.677 551.262ZM412.404 604.934C415.529 604.934 419.279 604.25 423.654 602.883V616.184C419.201 618.176 413.732 619.172 407.248 619.172C400.099 619.172 394.884 617.375 391.603 613.781C388.361 610.148 386.74 604.719 386.74 597.492V565.91H378.185V558.352L388.029 552.375L393.185 538.547H404.611V552.492H422.951V565.91H404.611V597.492C404.611 600.031 405.314 601.906 406.72 603.117C408.166 604.328 410.06 604.934 412.404 604.934ZM609.002 618L603.963 595.09L597.166 566.145H596.756L584.803 618H565.584L546.952 552.492H564.764L572.323 581.496C573.534 586.691 574.764 593.859 576.014 603H576.366C576.522 600.031 577.205 595.324 578.416 588.879L579.354 583.898L587.44 552.492H607.127L614.803 583.898C614.959 584.758 615.194 586.027 615.506 587.707C615.858 589.387 616.19 591.184 616.502 593.098C616.815 594.973 617.088 596.828 617.323 598.664C617.596 600.461 617.752 601.906 617.791 603H618.143C618.495 600.188 619.12 596.34 620.018 591.457C620.916 586.535 621.561 583.215 621.952 581.496L629.803 552.492H647.323L628.455 618H609.002ZM790.366 585.129C790.366 591.613 791.421 596.516 793.53 599.836C795.679 603.156 799.155 604.816 803.96 604.816C808.726 604.816 812.144 603.176 814.214 599.895C816.323 596.574 817.378 591.652 817.378 585.129C817.378 578.645 816.323 573.781 814.214 570.539C812.105 567.297 808.648 565.676 803.843 565.676C799.077 565.676 795.64 567.297 793.53 570.539C791.421 573.742 790.366 578.605 790.366 585.129ZM835.659 585.129C835.659 595.793 832.847 604.133 827.222 610.148C821.597 616.164 813.765 619.172 803.726 619.172C797.437 619.172 791.89 617.805 787.085 615.07C782.28 612.297 778.589 608.332 776.011 603.176C773.433 598.02 772.144 592.004 772.144 585.129C772.144 574.426 774.937 566.105 780.523 560.168C786.109 554.23 793.96 551.262 804.077 551.262C810.366 551.262 815.913 552.629 820.718 555.363C825.523 558.098 829.214 562.023 831.792 567.141C834.37 572.258 835.659 578.254 835.659 585.129ZM1005.19 551.262C1007.61 551.262 1009.62 551.438 1011.22 551.789L1009.88 568.547C1008.43 568.156 1006.67 567.961 1004.6 567.961C998.898 567.961 994.445 569.426 991.242 572.355C988.078 575.285 986.496 579.387 986.496 584.66V618H968.625V552.492H982.16L984.797 563.508H985.676C987.707 559.836 990.441 556.887 993.879 554.66C997.355 552.395 1001.12 551.262 1005.19 551.262ZM1158.49 582.375L1166.28 572.414L1184.62 552.492H1204.77L1178.76 580.91L1206.36 618H1185.73L1166.86 591.457L1159.19 597.609V618H1141.32V526.828H1159.19V567.492L1158.25 582.375H1158.49ZM1379.63 598.547C1379.63 605.266 1377.29 610.383 1372.6 613.898C1367.95 617.414 1360.98 619.172 1351.69 619.172C1346.92 619.172 1342.86 618.84 1339.5 618.176C1336.14 617.551 1332.99 616.613 1330.06 615.363V600.598C1333.38 602.16 1337.11 603.469 1341.26 604.523C1345.44 605.578 1349.11 606.105 1352.27 606.105C1358.76 606.105 1362 604.23 1362 600.48C1362 599.074 1361.57 597.941 1360.71 597.082C1359.85 596.184 1358.36 595.188 1356.26 594.094C1354.15 592.961 1351.33 591.652 1347.82 590.168C1342.78 588.059 1339.07 586.105 1336.69 584.309C1334.34 582.512 1332.62 580.461 1331.53 578.156C1330.47 575.812 1329.95 572.941 1329.95 569.543C1329.95 563.723 1332.19 559.23 1336.69 556.066C1341.22 552.863 1347.62 551.262 1355.9 551.262C1363.79 551.262 1371.47 552.98 1378.93 556.418L1373.54 569.309C1370.26 567.902 1367.19 566.75 1364.34 565.852C1361.49 564.953 1358.58 564.504 1355.61 564.504C1350.34 564.504 1347.7 565.93 1347.7 568.781C1347.7 570.383 1348.54 571.77 1350.22 572.941C1351.94 574.113 1355.67 575.852 1361.41 578.156C1366.53 580.227 1370.28 582.16 1372.66 583.957C1375.04 585.754 1376.8 587.824 1377.94 590.168C1379.07 592.512 1379.63 595.305 1379.63 598.547Z" fill="white" fill-opacity="0.9"/>
</svg>
