<svg width="462" height="290" viewBox="0 0 462 290" fill="none" xmlns="http://www.w3.org/2000/svg">
<rect width="462" height="290" fill="#FAFAFA"/>
<path d="M331.48 186.339C332.392 186.32 333.304 186.513 334.139 186.917C334.818 187.264 335.419 187.765 335.866 188.382C336.312 188.998 336.642 189.692 336.817 190.444C337.011 191.214 337.108 192.004 337.108 192.794C337.127 193.777 336.972 194.76 336.642 195.684C336.37 196.455 335.924 197.129 335.322 197.708C334.74 198.247 334.041 198.652 333.265 198.883C332.411 199.153 331.499 199.287 330.606 199.268H328.394V207.823H324.26V186.339H331.48ZM330.218 196.031C330.956 196.07 331.693 195.781 332.217 195.241C332.78 194.548 333.052 193.681 332.974 192.794C333.032 191.927 332.799 191.06 332.314 190.328C331.751 189.711 330.936 189.403 330.102 189.48H328.374V196.012L330.218 196.031ZM306.948 201.291C306.948 201.792 306.967 202.293 307.045 202.775C307.103 203.18 307.22 203.584 307.414 203.95C307.588 204.278 307.841 204.548 308.171 204.74C308.928 205.126 309.82 205.126 310.577 204.74C310.888 204.548 311.14 204.278 311.315 203.95C311.509 203.584 311.625 203.18 311.684 202.775C311.761 202.274 311.781 201.792 311.781 201.291V186.339H315.914V201.311C315.953 202.467 315.759 203.603 315.371 204.682C315.06 205.492 314.556 206.224 313.896 206.802C313.294 207.322 312.576 207.669 311.8 207.862C311.004 208.035 310.189 208.131 309.355 208.131C308.539 208.131 307.724 208.054 306.909 207.9C306.133 207.746 305.415 207.419 304.813 206.918C304.153 206.359 303.649 205.646 303.338 204.837C302.931 203.7 302.756 202.524 302.795 201.311V186.339H306.929L306.948 201.291ZM281.174 192.563C281.271 191.33 281.601 190.135 282.125 189.037C282.591 188.093 283.328 187.303 284.241 186.744C286.589 185.646 289.306 185.646 291.635 186.744C292.547 187.284 293.285 188.074 293.751 189.037C294.275 190.154 294.604 191.349 294.702 192.563C294.993 195.55 294.993 198.575 294.702 201.561C294.604 202.775 294.275 203.97 293.751 205.087C293.304 206.051 292.567 206.84 291.635 207.38C289.287 208.42 286.589 208.42 284.241 207.38C283.309 206.86 282.572 206.051 282.125 205.087C281.601 203.989 281.271 202.794 281.174 201.561C280.883 198.575 280.883 195.55 281.174 192.563ZM285.192 200.733C285.23 201.561 285.366 202.39 285.599 203.199C285.735 203.738 286.046 204.22 286.453 204.586C287.346 205.164 288.51 205.164 289.403 204.586C289.83 204.22 290.121 203.738 290.257 203.199C290.49 202.39 290.626 201.561 290.665 200.733C290.723 199.711 290.762 198.497 290.762 197.052C290.762 195.607 290.723 194.393 290.665 193.392C290.626 192.563 290.49 191.734 290.257 190.925C290.121 190.386 289.811 189.904 289.403 189.519C288.51 188.941 287.346 188.941 286.453 189.519C286.026 189.885 285.735 190.366 285.599 190.925C285.366 191.734 285.23 192.563 285.192 193.392C285.133 194.393 285.095 195.607 285.095 197.052C285.095 198.497 285.133 199.731 285.192 200.733ZM265.551 195.704C266.385 195.761 267.2 195.492 267.86 194.971C268.404 194.49 268.656 193.661 268.656 192.486C268.656 190.501 267.705 189.499 265.784 189.519H263.843V195.723L265.551 195.704ZM267.317 186.339C268.792 186.243 270.228 186.744 271.334 187.707C272.285 188.613 272.771 190.02 272.771 191.869C272.829 193.102 272.538 194.316 271.936 195.395C271.373 196.32 270.422 196.956 269.355 197.149V197.207C270.209 197.284 271.004 197.65 271.625 198.266C272.188 199.018 272.499 199.943 272.518 200.887C272.557 201.291 272.576 201.734 272.596 202.197C272.615 202.659 272.635 203.199 272.654 203.777C272.693 204.914 272.751 205.8 272.829 206.397C272.887 206.898 273.159 207.341 273.586 207.63V207.804H269.102C268.889 207.496 268.753 207.13 268.695 206.763C268.637 206.378 268.598 205.973 268.578 205.55L268.462 201.426C268.481 200.713 268.268 200.039 267.88 199.442C267.414 198.921 266.735 198.652 266.036 198.729H263.843V207.804H259.709V186.339H267.317ZM246.958 191.465C246.88 191.06 246.744 190.675 246.55 190.328C246.376 189.981 246.123 189.692 245.813 189.461C245.502 189.23 245.134 189.095 244.745 189.114C243.756 189.114 243.038 189.692 242.591 190.848C242.145 192.004 241.931 193.931 241.931 196.629C241.931 197.919 241.97 199.076 242.048 200.116C242.106 201.022 242.242 201.908 242.455 202.775C242.591 203.392 242.902 203.97 243.309 204.451C243.697 204.837 244.221 205.049 244.765 205.029C245.056 205.029 245.328 204.952 245.58 204.817C245.891 204.663 246.182 204.451 246.415 204.182C246.686 203.873 246.919 203.507 247.055 203.122C247.23 202.64 247.327 202.12 247.307 201.6V199.403H244.59V196.224H251.267V207.804H248.219V205.819H248.161C247.754 206.571 247.133 207.187 246.376 207.611C245.599 207.977 244.726 208.17 243.872 208.131C242.805 208.17 241.737 207.939 240.786 207.438C239.952 206.937 239.311 206.185 238.923 205.299C238.438 204.162 238.127 202.968 238.011 201.735C237.856 200.097 237.778 198.459 237.778 196.821C237.759 195.222 237.875 193.642 238.108 192.062C238.283 190.867 238.671 189.692 239.253 188.632C239.758 187.765 240.476 187.052 241.368 186.571C242.397 186.07 243.523 185.838 244.668 185.877C246.919 185.877 248.549 186.455 249.539 187.63C250.529 188.806 251.034 190.482 251.034 192.659H247.074C247.074 192.255 247.036 191.831 246.939 191.426L246.958 191.465ZM206.356 186.32H210.49V204.239H217.788V207.785H206.337L206.356 186.32ZM198.263 189.865H190.927V194.914H197.836V198.459H190.927V204.239H198.535V207.785H186.793V186.32H198.244L198.263 189.865ZM179.302 189.865H174.819V207.785H170.704V189.885H166.221V186.339H179.302V189.865ZM145.396 192.563C145.493 191.33 145.823 190.135 146.347 189.037C146.813 188.093 147.55 187.303 148.462 186.744C150.811 185.646 153.528 185.646 155.857 186.744C156.769 187.284 157.507 188.074 157.972 189.037C158.496 190.154 158.826 191.349 158.923 192.563C159.215 195.55 159.215 198.575 158.923 201.561C158.826 202.775 158.496 203.97 157.972 205.087C157.526 206.051 156.789 206.84 155.857 207.38C153.509 208.42 150.811 208.42 148.462 207.38C147.531 206.86 146.793 206.051 146.347 205.087C145.823 203.989 145.512 202.794 145.396 201.58C145.105 198.594 145.105 195.588 145.396 192.563ZM149.413 200.771C149.452 201.6 149.588 202.428 149.821 203.237C149.957 203.777 150.267 204.259 150.675 204.625C151.568 205.203 152.732 205.203 153.625 204.625C154.052 204.259 154.343 203.777 154.479 203.237C154.712 202.428 154.848 201.6 154.887 200.771C154.945 199.75 154.984 198.536 154.984 197.091C154.984 195.646 154.945 194.432 154.887 193.43C154.848 192.602 154.712 191.773 154.479 190.964C154.343 190.424 154.033 189.943 153.625 189.557C152.732 188.979 151.568 188.979 150.675 189.557C150.248 189.923 149.957 190.405 149.821 190.964C149.588 191.773 149.452 192.602 149.413 193.43C149.355 194.432 149.316 195.646 149.316 197.091C149.316 198.536 149.355 199.75 149.413 200.771ZM128.065 186.339V194.548H132.878V186.339H137.012V207.804H132.878V198.266H128.065V207.804H123.931V186.339H128.065ZM103.824 138.979C103.824 144.547 100.486 147.264 93.6156 147.264H78.4968V129.923H93.9067C100.583 129.923 103.824 132.89 103.824 138.979ZM101.107 110.54C101.107 116.667 96.585 117.958 92.8004 117.958H78.4968V103.41H91.636C98.0794 103.41 101.088 105.703 101.088 110.54H101.107ZM109.084 122.158C114.46 118.921 117.08 114.239 117.08 107.938C117.08 95.8767 109.744 90.0193 94.6442 90.0193H62.8151C62.3688 90 62 90.3468 62 90.79V90.8285V159.865C62 160.309 62.3493 160.675 62.7957 160.675H95.5758C106.968 160.675 120.263 155.222 120.263 139.846C120.263 131.175 116.303 124.952 109.045 122.139L109.084 122.158ZM157.642 140.501C157.642 147.707 154.343 151.195 147.531 151.195C142.524 151.195 140.059 149.364 140.059 145.626C140.059 141.888 142.174 140.039 147.376 139.075C148.404 138.883 149.472 138.728 150.52 138.594C153.179 138.208 155.74 137.861 157.623 136.879L157.642 140.501ZM172.684 159.846V122.736C172.684 112.775 165.173 107.707 150.364 107.707C137.089 107.707 128.511 113.199 126.823 122.775C126.784 122.987 126.823 123.199 126.958 123.391C127.075 123.565 127.269 123.68 127.482 123.719L140.719 125.954C140.932 125.992 141.165 125.935 141.34 125.8C141.514 125.665 141.631 125.453 141.65 125.222C142.097 120.655 144.659 118.516 149.763 118.516C154.654 118.516 157.681 119.518 157.681 124.509C157.875 128.189 153.586 128.883 146.561 129.692C137.031 130.79 125.173 132.158 125.056 146.243C125.056 155.993 131.752 162.043 142.543 162.043C148.831 162.043 153.8 160.328 157.701 156.898V159.865C157.701 160.309 158.05 160.675 158.496 160.675H171.985C172.431 160.675 172.781 160.309 172.781 159.865L172.684 159.846ZM208.841 121.638L213.421 109.094C213.499 108.883 213.479 108.632 213.382 108.439C213.285 108.227 213.091 108.093 212.878 108.035C212.062 107.823 211.228 107.707 210.393 107.707C203.484 107.707 198.108 110.732 195.352 115.646V109.884C195.352 109.441 195.003 109.075 194.556 109.075H181.747C181.301 109.075 180.951 109.441 180.951 109.884V159.885C180.951 160.328 181.301 160.694 181.747 160.694H195.216C195.663 160.694 196.012 160.328 196.012 159.885V137.341C196.012 127.418 200.029 122.293 208.084 122.12C208.414 122.1 208.705 121.908 208.802 121.599L208.841 121.638ZM261.669 143.141C261.708 142.929 261.669 142.698 261.553 142.505C261.436 142.332 261.242 142.197 261.029 142.158L248.414 140.019C248.219 139.981 248.006 140.039 247.831 140.154C247.657 140.289 247.54 140.482 247.521 140.694C246.9 144.952 244.687 150.019 237.623 150.019C229.957 150.019 227.239 142.293 227.239 135.068C227.239 132.486 227.763 119.653 237.914 119.653C243.27 119.653 246.279 122.235 247.074 127.534C247.113 127.746 247.23 127.938 247.404 128.073C247.579 128.189 247.773 128.247 247.987 128.208L260.932 126.031C261.378 125.954 261.669 125.53 261.592 125.106C259.903 114.528 250.665 107.688 238.011 107.688C222.329 107.688 212.179 118.632 212.179 135.588C212.179 151.156 222.679 162.023 237.72 162.023C250.432 162.043 259.185 155.164 261.669 143.141ZM301.941 128.69H281.853C282.261 125.761 284.105 119.673 292.159 119.673C297.69 119.673 300.563 122.293 301.902 128.69H301.941ZM317.215 135.935V135.781C317.254 127.592 314.692 120.154 310.034 115.048C305.648 110.251 299.592 107.726 292.547 107.726C277.603 107.726 266.715 119.152 266.715 134.933C266.715 151.156 277.06 162.043 292.547 162.043C303.707 162.043 311.392 157.014 315.371 147.11C315.468 146.879 315.449 146.628 315.332 146.416C315.216 146.204 315.002 146.05 314.75 146.012L303.571 144.104C303.202 144.046 302.833 144.258 302.698 144.605C301.63 147.283 297.71 150.077 292.994 150.077C285.929 150.077 282.358 146.551 281.795 139.037H314.168C315.856 139.018 317.215 137.63 317.195 135.935H317.215ZM340.174 159.865V90.8285C340.174 90.3854 339.825 90.0193 339.379 90.0193H324.997C324.57 90.0385 324.24 90.4046 324.24 90.8285V159.865C324.24 160.309 324.59 160.675 325.036 160.675H339.418C339.864 160.675 340.213 160.309 340.213 159.865H340.174ZM389.315 91.2524C389.529 91.0405 389.607 90.7322 389.49 90.4624C389.393 90.1927 389.121 90 388.83 90H375.516C375.283 90 375.07 90.1349 374.934 90.3276L366.802 102.563C366.647 102.794 366.647 103.064 366.763 103.314C366.88 103.545 367.132 103.699 367.384 103.699H375.788C375.963 103.699 376.137 103.642 376.273 103.507L389.315 91.2524ZM383.939 134.913C383.939 140.578 382.484 150.058 372.78 150.058C363.076 150.058 361.717 140.578 361.717 134.913C361.717 129.249 363.153 119.673 372.78 119.673C382.406 119.673 383.939 129.21 383.939 134.913ZM399 134.913C399 118.362 388.714 107.707 372.799 107.707C356.885 107.707 346.676 118.382 346.676 134.913C346.676 151.445 356.923 162.023 372.78 162.023C388.636 162.023 399.019 151.388 399 134.913Z" fill="#3697EC"/>
</svg>
