<svg width="462" height="290" viewBox="0 0 462 290" fill="none" xmlns="http://www.w3.org/2000/svg">
<rect width="462" height="290" fill="#FAFAFA"/>
<path d="M361 220.008H357.175V220.484C358.008 220.526 358.638 220.554 358.608 221.246C358.638 221.7 358.091 222.642 357.938 222.865L356.024 226.005L353.921 222.008C353.819 221.754 353.531 221.329 353.539 221.055C353.531 220.584 353.733 220.472 354.974 220.484V220.008H349.142V220.484C349.431 220.505 349.71 220.604 349.945 220.772C350.181 220.94 350.366 221.17 350.479 221.436L353.634 227.146V229.714C353.675 231.145 353.272 231.175 352.106 231.334V231.714H358.129V231.334C356.888 231.178 356.515 231.148 356.503 229.714V226.479L359.849 221.15C360.157 220.584 360.673 220.526 360.998 220.484V220.008H361ZM349.716 231.334C349.545 231.291 349.288 231.291 349.046 230.952L345.603 226.002C346.474 225.75 348.283 225.208 348.28 223.052C348.28 220.183 344.582 220.041 343.403 220.008H337.762V220.484C338.76 220.554 339.303 220.584 339.291 222.103V229.717C339.3 231.12 338.958 231.148 337.762 231.336V231.716H343.594V231.336C342.514 231.15 342.113 231.093 342.159 229.717V226.291H342.637L346.175 231.714H349.713V231.334H349.716Z" fill="#3697EC"/>
<path d="M342.164 221.341C342.204 220.812 342.232 220.642 343.214 220.674C344.584 220.639 345.299 221.383 345.319 223.148C345.299 225.381 344.413 225.752 342.164 225.813V221.341Z" fill="white"/>
<path d="M326.387 220.484C327.228 220.526 327.948 220.554 327.916 221.722V230.096C327.946 231.145 327.4 231.203 326.387 231.333V231.714H336.616L337.286 228.097H336.808C335.692 230.747 333.942 231.206 332.219 231.238C331.101 231.206 330.759 230.977 330.787 230.193V226.005C332.481 226.04 333.367 226.554 333.559 228.767H334.037V222.867H333.559C333.312 225.012 332.42 225.471 330.787 225.436V221.439C330.759 220.702 331.074 220.644 332.028 220.677C334.372 220.642 335.606 221.071 336.044 223.532H336.427V220.01H326.387V220.484ZM325.621 231.333C325.221 231.291 324.992 231.233 324.76 230.952L319.406 224.386C322.353 221.441 323.183 220.584 325.047 220.484V220.008H319.981V220.484C321.235 220.554 321.464 220.639 321.509 221.055C321.462 221.383 321.321 221.526 320.839 222.008L317.109 225.815V222.105C317.072 220.589 317.646 220.559 318.639 220.486V220.01H312.711V220.486C313.545 220.529 314.262 220.556 314.242 221.724V230.098C314.262 231.12 313.688 231.206 312.711 231.336V231.716H318.639V231.336C317.674 231.18 317.072 231.123 317.109 230.098V226.671L317.493 226.198L320.648 230.196C320.973 230.497 321.119 230.721 321.127 230.958C321.119 231.21 320.804 231.266 319.79 231.338V231.72H325.621V231.333ZM312.046 231.333C311.225 231.32 310.938 230.747 310.134 228.859L306.309 219.82H305.831L302.006 229.241C301.414 230.576 301.184 231.148 300.283 231.333V231.714H303.726V231.333C303.162 231.261 302.33 231.206 302.293 230.572C302.333 230.294 302.618 229.579 303.152 228.288H306.977C307.263 228.865 307.81 230.15 307.837 230.667C307.81 231.206 307.496 231.206 306.403 231.333V231.714H312.044V231.333H312.046ZM289.671 231.714H295.312C298.977 231.662 300.18 229.977 300.188 228.479C300.18 226.552 298.345 225.667 296.84 225.433C297.627 225.181 299.575 224.725 299.614 222.77C299.575 220.103 296.048 220.043 295.121 220.01H289.669V220.486C290.511 220.529 291.231 220.556 291.197 221.724V230.098C291.227 231.12 290.682 231.206 289.669 231.336V231.714H289.671Z" fill="#3697EC"/>
<path d="M293.973 225.813H294.547C295.647 225.865 297.196 226.123 297.224 228.574C297.196 229.634 296.967 231.178 295.025 231.143C294.328 231.175 294.013 230.89 293.973 230.096V225.813Z" fill="white"/>
<path d="M282.212 215.156V216.105C284.088 216.301 284.604 216.386 284.602 217.82C284.602 219.672 282.996 221.784 281.827 223.338L276.378 214.965C278.722 214.133 281.878 212.477 281.923 209.351C281.878 207.198 280.357 204.6 275.804 204.594C272.553 204.6 268.795 206.11 268.825 210.78C268.798 212.537 269.4 214.108 270.641 216.394C268.279 217.589 263.578 220.043 263.565 225.053C263.578 229.721 267.02 231.977 270.45 232C274.162 231.977 277.115 229.749 278.481 228.574C279.896 230.236 281.362 232.005 284.025 232C284.63 232.005 286.723 231.747 288.231 229.81C288.272 229.749 289.763 227.123 289.763 227.05L289.092 226.573C288.644 227.463 287.927 228.09 286.989 228.095C285.317 228.09 284.199 226.664 282.686 224.574C285.03 221.068 285.03 221.068 286.989 217.627C287.642 216.585 288.015 216.216 289.666 216.105V215.156H282.212Z" fill="#3697EC"/>
<path d="M266.056 215.918C264.786 215.847 264.356 215.818 264.333 214.299V205.258C265.56 205.283 267.338 205.369 267.68 208.113H268.158V204.687H257.735V208.113H258.214C258.531 205.369 260.337 205.283 261.561 205.258V214.299C261.543 215.788 261.14 215.814 259.838 215.918V216.391H266.053V215.918H266.056ZM244.925 216.391H248.846V215.918C247.547 215.79 247.174 215.474 247.22 214.203V207.354L254.963 216.679H255.442V206.497C255.434 205.656 255.547 205.256 256.781 205.071V204.687H253.052V205.068C254.459 205.196 254.658 205.767 254.678 206.779V212.015L248.655 204.687H244.928V205.068C245.167 205.111 245.455 205.168 246.456 206.306V214.492C246.428 215.677 245.941 215.818 244.928 215.918V216.391H244.925ZM244.064 215.918C243.216 215.96 242.926 215.389 242.15 213.539L238.325 204.402H237.751L233.926 213.917C233.402 215.189 233.173 215.79 232.203 215.918V216.391H235.741V215.918C235.15 215.902 234.319 215.847 234.309 215.156C234.319 214.902 234.606 214.188 235.074 212.966H238.995C239.226 213.502 239.798 214.788 239.761 215.248C239.801 215.814 239.486 215.844 238.423 215.915V216.391H244.064V215.918ZM231.922 215.918C231.794 215.93 231.667 215.909 231.55 215.86C231.433 215.809 231.33 215.731 231.251 215.632L227.713 210.685C228.671 210.394 230.478 209.85 230.489 207.735C230.478 204.8 226.809 204.684 225.61 204.689H219.969V205.071C220.985 205.171 221.529 205.199 221.499 206.69V214.304C221.529 215.735 221.184 215.792 219.969 215.923V216.391H225.897V215.918C224.744 215.762 224.341 215.732 224.369 214.299V210.967H224.848L228.386 216.391H231.924V215.918H231.922ZM219.204 204.687H215.379V205.068C216.852 205.168 217.054 205.767 217.099 206.779V212.111C217.054 213.19 217.023 215.844 213.944 215.82C211.458 215.844 211.458 213.446 211.458 212.489V206.684C211.458 205.168 212.002 205.168 213.179 205.066V204.687H207.251V205.068C208.247 205.196 208.706 205.253 208.683 206.688V212.491C208.703 214.334 209.162 214.933 209.928 215.632C211.028 216.589 212.662 216.702 213.466 216.679C214.47 216.702 215.991 216.361 216.812 215.441C217.598 214.647 217.827 213.106 217.862 212.111V206.592C217.824 205.427 218.227 205.256 219.202 205.071V204.687H219.204ZM207.348 215.918C206.47 215.96 206.183 215.389 205.435 213.539L201.514 204.402H201.038L197.213 213.917C196.659 215.189 196.43 215.79 195.493 215.918V216.391H199.028V215.918C198.437 215.902 197.578 215.847 197.596 215.156C197.578 214.902 197.865 214.188 198.361 212.966H202.282C202.514 213.502 203.058 214.788 203.047 215.248C203.058 215.814 202.743 215.844 201.71 215.915V216.391H207.351V215.918H207.348ZM194.249 215.918C192.932 215.847 192.529 215.818 192.529 214.299V205.258C193.705 205.283 195.513 205.369 195.876 208.113H196.354V204.687H185.934L185.838 208.113H186.412C186.709 205.369 188.487 205.283 189.663 205.258V214.299C189.693 215.788 189.293 215.814 188.036 215.918V216.391H194.251V215.918H194.249ZM184.113 208.113V204.402H183.539C183.433 204.712 183.347 204.996 182.965 204.975C182.459 204.998 181.627 204.426 180.288 204.402C176.951 204.426 176.407 206.767 176.367 207.827C176.407 208.622 176.407 210.105 179.427 211.537L180.575 212.111C181.685 212.619 182.489 213.018 182.486 214.203C182.486 214.416 182.401 216.131 180.288 216.105C178.13 216.131 177.095 214.161 176.75 212.393H176.274V216.676H176.75C176.838 216.417 176.923 216.103 177.228 216.105C177.812 216.103 178.588 216.699 180.288 216.676C183.436 216.699 184.554 214.59 184.589 213.06C184.58 212.415 184.398 211.784 184.062 211.231C183.726 210.68 183.248 210.227 182.678 209.92L180.096 208.587C178.643 207.907 178.301 207.537 178.278 206.59C178.301 205.481 179.245 204.938 180.192 204.973C182.202 204.938 183.262 206.938 183.539 208.11H184.113V208.113ZM164.322 205.068C165.136 205.168 165.881 205.196 165.851 206.306V214.679C165.881 215.76 165.335 215.818 164.322 215.918V216.391H174.551L175.221 212.777H174.745C173.627 215.389 171.849 215.818 170.154 215.823C169.009 215.818 168.694 215.616 168.719 214.87V210.685C170.414 210.68 171.303 211.193 171.494 213.348H171.97V207.544H171.494C171.245 209.652 170.358 210.108 168.719 210.113V206.115C168.694 205.339 169.009 205.256 169.963 205.258C172.308 205.256 173.539 205.682 173.98 208.113H174.36V204.687H164.322V205.068ZM163.94 215.918C163.799 215.928 163.657 215.908 163.525 215.859C163.393 215.809 163.273 215.732 163.174 215.632L159.732 210.685C160.661 210.394 162.466 209.85 162.504 207.735C162.466 204.8 158.767 204.684 157.531 204.689H151.986V205.071C152.973 205.171 153.489 205.199 153.517 206.69V214.304C153.489 215.735 153.144 215.792 151.986 215.923V216.391H157.818V215.918C156.7 215.762 156.299 215.732 156.289 214.299V210.967H156.765L160.401 216.391H163.937V215.918H163.94ZM341.493 208.875C341.514 207.198 340.109 205.767 338.339 205.735C336.639 205.767 335.231 207.196 335.279 208.875C335.266 209.283 335.337 209.689 335.485 210.069C335.633 210.45 335.856 210.796 336.142 211.089C336.426 211.382 336.768 211.615 337.145 211.774C337.523 211.934 337.929 212.015 338.339 212.015C338.754 212.02 339.168 211.943 339.552 211.787C339.937 211.631 340.288 211.4 340.582 211.108C340.876 210.815 341.108 210.466 341.265 210.083C341.421 209.699 341.5 209.289 341.493 208.875ZM226.281 130.37H187.364L188.991 124.47H193.007L207.061 75.2725H202.949L204.48 69.4681H235.555C250.586 69.5107 254.028 76.2499 253.53 83.8364C252.851 92.6332 243.588 96.6307 234.789 98.0141C243.931 100.425 249.209 108.906 247.124 117.046C244.82 126.064 237.794 130.402 226.281 130.37ZM231.538 197.076H192.718L194.344 191.176H198.361L212.511 141.978H208.305L209.932 136.269H240.909C255.95 136.257 259.363 142.994 258.884 150.542C258.217 159.349 248.952 163.347 240.146 164.723C249.267 167.143 254.545 175.622 252.478 183.755C250.156 192.778 243.158 197.118 231.538 197.076Z" fill="#3697EC"/>
<path d="M212.511 123.613L218.822 100.3C229.532 100.144 229.016 108.42 227.618 113.43C225.973 119.355 224.369 126.207 212.511 123.613ZM217.864 190.318L224.271 167.101C234.868 166.858 234.379 175.138 232.974 180.234C231.281 186.071 229.702 192.923 217.864 190.318ZM220.831 93.6382L225.994 75.6535H228.766C232.085 75.651 235.528 78.5056 234.215 83.9316C232.8 89.5807 229.989 95.6883 220.831 93.6382ZM226.182 160.344L231.251 142.359H234.12C237.421 142.392 240.891 145.249 239.571 150.637C238.164 156.294 235.356 162.405 226.182 160.344Z" fill="white"/>
<path d="M251.999 98.0141L253.24 93.4453L272.46 88.0217C274.22 92.2899 273.588 96.5731 272.173 100.488L265.671 119.234C264.839 121.493 265.844 123.264 267.871 121.518C268.428 120.979 269.372 120.237 269.974 119.613C270.55 121.067 270.951 122.635 270.931 124.37C268.913 127.715 263.006 132.367 256.399 131.793C250.76 131.312 247.088 124.776 249.322 118.756L255.633 101.914C256.151 100.626 255.663 98.0542 254.006 98.0116H251.999V98.0141ZM269.402 66.6135C271.801 66.6465 274.092 67.6096 275.788 69.2978C277.485 70.986 278.453 73.2662 278.486 75.6535C278.44 80.6158 274.366 84.6709 269.402 84.6935C266.999 84.6771 264.698 83.7193 262.998 82.0276C261.298 80.3358 260.336 78.0459 260.319 75.6535C260.337 70.7086 264.411 66.6561 269.402 66.6135ZM297.606 124.47C293.955 127.976 289.165 131.059 284.22 130.751C276.944 130.232 272.958 118.558 274.753 111.718C278.667 96.2322 292.031 87.0694 302.578 88.4052C305.028 88.7234 307.408 89.8087 309.558 90.9741C310.076 90.122 310.651 89.3225 311.28 88.5957H323.136L309.941 131.227C305.917 144.192 293.038 148.274 282.212 147.973C276.028 147.788 269.43 144.532 269.878 138.267C270.147 135.312 273.963 132.685 276.955 132.653C281.679 132.685 285.005 136.282 285.081 141.026C286.153 141.565 286.957 141.422 287.566 141.312C291.49 140.194 293.897 135.111 295.886 129.322L297.606 124.47Z" fill="#3697EC"/>
<path d="M297.702 97.3475C300.18 92.8061 305.63 93.6608 304.3 98.3951L299.711 115.24C297.828 118.327 295.305 121.753 292.54 121.901C290.256 122.066 290.228 117.758 290.817 115.525C292.351 109.019 294.587 102.941 297.702 97.3475Z" fill="white"/>
<path d="M255.537 175.951C260.655 158.495 272.444 154.47 284.414 154.825C293.7 155.184 303.94 164.204 300.573 177.472C297.773 188.84 288.994 199.431 273.037 198.882C259.937 198.404 252.594 186.241 255.537 175.951Z" fill="#3697EC"/>
<path d="M278.77 189.176C277.75 191.75 275.454 192.923 273.512 192.697C271.553 192.492 269.946 190.895 270.357 187.941C271.324 179.96 274.079 172.454 276.955 164.913C278.007 162.121 280.359 160.665 282.404 160.728C284.345 160.78 285.98 162.349 285.56 165.579C284.632 173.479 281.85 181.446 278.77 189.176Z" fill="white"/>
<path d="M325.717 191.557C324.878 194.437 323.987 197.261 323.135 200.026C321.577 204.597 317.994 209.223 313 207.827C312.026 203.485 310.192 199.517 304.778 199.074C301.643 198.802 298.114 201.715 297.893 204.783C297.398 212.191 306.404 214.417 312.235 214.867C324.647 215.73 335.69 207.68 338.527 197.645L350.478 155.773H334.132C332.794 163.671 331.134 171.513 329.16 179.276C322.582 191.435 316.961 190.405 318.737 185.462L325.334 167.287C326.969 162.859 325.795 156.833 322.179 153.585L305.063 161.006L306.498 165.003C309.933 163.658 310.019 166.084 309.558 167.287L303.63 183.084C300.293 191.75 306.606 198.259 312.617 198.023C317.936 197.833 321.952 195.206 325.717 191.557ZM170.441 127.325L170.728 128.563C172.738 128.693 183.78 130.235 189.086 148.548C189.144 148.676 189.116 148.849 188.99 148.926C188.943 149.016 188.57 149.302 187.842 149.593C189.346 154.841 187.48 159.751 187.268 160.249C187.966 161.605 187.852 163.919 187.746 165.387C187.709 165.716 187.681 166.059 187.651 166.245L187.746 166.625C187.709 167.543 187.709 168.114 187.077 168.908C186.676 169.484 186.963 170.169 186.981 170.242C186.992 170.337 186.992 170.433 186.981 170.528C186.905 170.598 185.845 173.397 182.201 173.478C179.049 173.683 178.187 171.828 177.996 171.099C176.409 170.542 176.18 169.031 176.274 168.054C175.893 167.916 175.548 167.575 175.317 167.104C172.448 172.884 168.578 176.996 164.226 179.094C163.443 192.929 152.315 205.317 137.74 208.594C136.279 208.943 134.7 209.113 133.152 209.262C132.064 209.402 130.888 209.487 129.709 209.642C129.797 209.828 129.825 210.001 129.901 210.116C129.999 210.682 130.112 211.339 129.901 211.926C129.911 212.169 129.853 212.455 129.805 212.688C129.54 214.111 129.253 215.68 127.989 216.302C126.126 217.334 123.429 217.563 121.487 216.302C118.151 213.996 115.826 209.712 115.94 205.93C116.028 202.006 118.868 198.951 121.58 195.938C121.334 195.467 121.016 194.983 120.719 194.512C120.682 194.438 120.663 194.357 120.663 194.274C120.663 194.192 120.682 194.11 120.719 194.036C122.079 191.643 123.57 189.874 125.499 188.518C125.549 188.53 125.693 188.504 125.786 188.518C126.468 188.618 127.156 188.73 127.7 188.803C128.332 188.076 128.961 187.362 129.707 186.615C129.221 185.219 129.221 183.65 129.611 181.951C129.236 181.686 128.853 181.432 128.463 181.191C126.322 179.91 123.912 178.397 122.63 176.051C120.414 171.919 121.762 166.55 123.205 162.731C124.544 159.47 126.982 156.731 129.324 154.072C130.538 152.821 131.714 151.478 132.766 150.074C133.063 148.966 133.179 147.796 133.245 146.648C132.751 146.798 132.271 146.989 131.809 147.22C131.643 147.251 131.472 147.217 131.331 147.124C130.983 146.839 130.664 146.521 130.376 146.174C129.334 146.969 128.274 147.683 127.317 148.458C124.947 150.079 122.568 151.821 120.435 153.786C119.699 154.563 119.213 155.56 119.191 156.545C119.211 157.475 119.037 158.445 118.329 159.305C116.715 160.984 116.229 162.412 115.365 165.109V165.205C115.31 165.322 115.139 165.438 114.985 165.394C113.447 165.522 112.472 165.009 111.926 163.966C111.581 163.039 112.356 161.525 112.88 161.016C113.129 160.726 113.245 160.412 113.167 160.254C113.074 160.069 112.757 160.069 112.691 160.064C110.206 160.355 108.743 161.097 107.911 162.537C107.453 163.232 107.252 164.262 106.569 165.199C106.103 165.861 105.416 166.147 104.754 165.961C103.978 165.69 103.462 164.891 103.51 163.961C103.464 163.447 103.53 162.928 103.701 162.44C103.26 162.179 102.922 161.776 102.744 161.297C102.344 160.352 102.402 159.124 102.84 157.966C102.344 157.666 102.115 157.267 102.074 157.014C101.855 156.295 102.115 155.382 102.935 154.35C102.603 152.583 102.888 151.157 103.797 150.26C105.126 148.818 106.703 147.846 108.289 146.929C109.057 146.42 109.858 145.934 110.679 145.408C112.412 144.164 113.933 142.425 115.363 140.746C116.312 139.741 117.287 138.601 118.327 137.701C121.386 134.861 124.945 132.32 129.608 129.708C129.707 129.408 129.79 129.125 129.8 128.854C129.82 128.724 129.994 128.583 130.183 128.568C131.769 128.182 133.174 127.583 134.771 126.949C137.077 126.042 139.515 125.069 142.801 124.856C143.758 124.756 144.818 125.042 145.861 125.333C146.972 125.613 148.062 125.899 149.112 125.809C149.122 125.528 149.324 124.671 148.921 124.002V123.907C147.274 123.028 145.707 122.009 144.237 120.861C141.207 121.704 138.168 121.305 135.728 119.816C133.577 118.536 132.086 116.626 131.711 114.583C131.396 113.255 131.424 112.085 131.807 111.157C131.167 110.087 126.692 102.438 131.903 95.4557C131.512 94.0147 129.79 85.6488 136.012 80.516C142.56 75.1903 146.319 74.679 151.605 74.0375L152.081 73.9422C158.077 73.1102 158.85 71.3959 158.87 69.9447C158.871 69.5775 158.774 69.2165 158.589 68.8986C158.404 68.5808 158.138 68.3174 157.817 68.1353C156.757 67.4561 155.123 67.5413 153.516 68.3258C153.461 68.3684 153.431 68.3684 153.325 68.3258C153.26 68.3684 152.572 68.3684 152.275 67.8496C152.114 67.5413 152.172 67.1403 152.466 66.6115V66.7067C152.544 66.599 156.989 58.9775 166.616 59C176.523 59.5765 181.37 68.426 181.244 73.1803C181.199 77.5337 179.993 78.7041 179.525 78.9848C179.333 79.2755 178.845 80.3306 179.62 81.1752C180.826 82.501 181.401 90.2679 179.237 94.0197C179.91 96.8592 181.572 100.315 181.532 100.3C181.563 100.333 181.594 100.365 181.627 100.395C184.266 107.967 182.748 111.105 181.627 113.433C181.486 113.734 181.37 114.017 181.244 114.29C180.194 116.643 176.409 122.526 172.544 125.994C171.819 126.606 171.131 127.064 170.441 127.325Z" fill="#3697EC"/>
<path d="M186.697 159.297C186.42 158.836 186.105 158.294 185.835 157.678C185.216 156.55 184.612 155.437 183.634 155.204C182.861 154.981 181.484 155.322 180.288 155.68C180.338 154.838 180.565 154.923 180.383 152.445C182.516 150.5 185.642 150.47 186.981 149.971C188.17 153.898 187.195 157.808 186.697 159.297Z" fill="white"/>
<path d="M186.888 165.292C186.881 165.715 186.823 166.001 186.792 166.244L186.888 166.625C186.881 167.515 186.881 167.828 186.505 168.432C186.28 168.688 186.125 168.998 186.058 169.332C185.991 169.665 186.013 170.012 186.122 170.335C185.848 170.798 184.899 172.595 182.202 172.712C180.023 172.795 179.22 171.825 178.951 171.191C179.85 171.339 181.63 171.424 182.967 171.001C183.237 170.938 183.35 170.682 183.254 170.524C183.179 170.254 182.95 170.111 182.778 170.239C181.086 170.74 178.379 170.335 178.379 170.335C178.331 170.281 178.276 170.281 178.188 170.335C177.097 169.855 177.07 168.741 177.138 168.242C178.361 168.142 179.424 167.855 180.293 167.67C181.373 167.369 182.176 167.143 182.778 167.385C183.038 167.457 183.267 167.341 183.352 167.098C183.441 166.886 183.297 166.658 183.065 166.527C182.207 166.257 181.232 166.542 180.101 166.812C179.101 167.096 178.077 167.288 177.042 167.385C176.211 167.369 176.009 166.6 175.893 166.146C175.924 166.086 175.924 165.998 175.893 165.956C175.893 165.956 175.924 165.968 175.893 165.956C176.009 165.8 176.009 165.685 175.893 165.575C175.982 164.971 176.211 164.484 176.372 164.435C176.697 164.487 177.1 164.43 177.613 164.244L178.57 163.959C180.341 163.344 181.633 162.946 182.683 163.386C182.95 163.43 183.181 163.316 183.257 163.101C183.3 162.999 183.305 162.884 183.269 162.779C183.234 162.674 183.162 162.585 183.065 162.529C181.635 162.058 180.227 162.487 178.286 163.101L177.331 163.482C176.931 163.572 176.299 163.743 176.087 163.386C175.841 162.973 176.012 162.259 176.183 162.056C176.614 161.69 177.475 160.833 179.434 159.678C180.887 158.778 183.259 159.678 183.259 159.678C183.373 159.696 183.49 159.679 183.593 159.627C183.696 159.576 183.78 159.494 183.833 159.392C183.874 159.149 183.76 158.893 183.549 158.82C183.443 158.778 180.749 157.863 178.958 158.916C178.596 159.149 178.281 159.349 178.004 159.582C176.301 159.264 176.475 158.407 176.76 157.49C177.707 157.495 178.339 157.294 179.245 157.013C180.718 156.352 182.67 155.81 183.453 156.061C184.048 156.151 184.564 157.179 185.08 158.154C185.453 158.863 185.825 159.605 186.321 160.151C187.165 161.121 186.994 163.861 186.888 165.292ZM141.089 184.8L135.831 182.136C138.833 181.076 141.386 179.848 143.862 178.71C145.777 177.76 147.722 176.872 149.694 176.046C152.056 175.138 156.533 175.138 158.777 176.522C160.031 177.336 159.744 178.391 159.351 179.567C159.314 179.65 159.258 179.735 159.351 179.757C157.881 181.875 155.529 183.444 153.328 184.704C150.91 186.1 148.241 185.986 146.539 185.371C144.569 184.7 142.764 184.502 141.089 184.8ZM137.644 145.595C137.886 145.618 138.057 145.42 138.027 145.119C137.999 144.933 137.798 144.763 137.549 144.738C135.819 144.961 133.927 145.447 131.716 146.259C126.783 141.876 128.561 136.139 129.898 131.891C130.195 130.888 130.425 130.031 130.568 129.227C132.177 128.919 133.582 128.347 135.063 127.801C137.312 126.863 139.664 125.893 142.809 125.61C143.824 125.55 144.942 125.921 146.156 126.277C150.938 133.257 150.049 145.733 149.885 147.783C145.144 148.159 140.699 149.329 136.881 151.302C135.391 151.412 134.016 150.299 133.63 149.971C133.93 148.843 134.074 147.587 134.109 146.354C135.266 146.013 136.448 145.759 137.644 145.595Z" fill="white"/>
<path d="M126.746 147.783C124.434 149.415 121.994 151.156 119.861 153.206C119.398 153.634 119.024 154.148 118.762 154.72C118.499 155.291 118.354 155.909 118.332 156.537C118.352 157.379 118.181 158.094 117.662 158.728C116 160.495 115.484 162.063 114.603 164.628C113.648 164.602 113.046 164.262 112.787 163.58C112.56 163.174 112.991 162.063 113.457 161.58C113.963 161.091 114.165 160.349 113.837 159.868C113.82 159.635 113.447 159.149 112.596 159.201C109.833 159.522 108.141 160.404 107.242 162.058C106.91 162.462 106.766 162.89 106.572 163.389C106.389 163.852 106.165 164.299 105.902 164.723C105.618 165.089 105.303 165.231 105.041 165.104C104.699 165.033 104.326 164.605 104.371 163.961C104.323 162.063 105.044 161.006 105.711 159.966C106.305 159.151 106.791 158.439 106.955 157.397C106.965 157.126 106.794 156.926 106.572 156.921C106.335 156.898 106.106 157.041 106.096 157.302C105.99 158.096 105.532 158.753 105.044 159.49C104.643 160.063 104.213 160.723 103.895 161.582C103.751 161.403 103.623 161.212 103.512 161.011C103.238 160.294 103.18 158.978 103.895 157.68C104.127 157.297 104.414 157.011 104.661 156.73C105.331 155.926 106.018 155.126 105.902 153.59C105.932 153.384 105.731 153.184 105.519 153.206C105.3 153.211 105.099 153.412 105.137 153.587C105.159 154.783 104.641 155.44 104.087 156.156C103.739 156.451 103.447 156.806 103.225 157.204C102.948 157.008 102.893 156.808 102.843 156.823C102.749 156.239 103.092 155.44 103.893 154.445C104.555 153.698 104.955 152.728 105.137 151.685C105.159 151.414 105.013 151.156 104.85 151.114C104.555 151.129 104.354 151.272 104.371 151.495C104.225 152.123 104 152.731 103.701 153.304C103.636 152.241 103.868 151.414 104.371 150.828C105.645 149.472 107.164 148.56 108.77 147.688C109.518 147.159 110.349 146.618 111.16 146.069C112.988 144.816 114.537 143.046 116.038 141.312C116.919 140.279 117.894 139.194 118.906 138.267C121.767 135.655 125.094 133.257 129.329 130.843C128.163 134.598 125.899 140.565 129.805 145.5C128.82 146.274 127.76 147.019 126.746 147.783ZM166.712 134.555C167.573 134.284 168.291 133.798 168.91 133.222C170.643 138.109 171.101 143.56 171.109 147.783C166.77 148.873 160.145 146.901 159.062 146.545C158.88 141.45 157.39 137.139 155.619 133.7C158.138 134.913 163.101 136.056 166.712 134.555ZM188.225 148.45C187.51 148.931 185.015 150.244 180.096 149.592C179.505 144.422 177.467 136.828 171.396 129.515C174.516 129.974 183.493 132.715 188.225 148.45ZM144.242 119.996C141.329 120.838 138.46 120.467 136.113 119.044C134.242 117.926 132.893 116.214 132.482 114.478C132.177 112.904 132.349 111.676 132.958 110.766C133.64 109.791 134.93 109.192 136.783 108.864C140.037 108.335 142.386 111.247 142.424 111.242C142.481 111.311 142.555 111.365 142.639 111.398C142.722 111.431 142.813 111.443 142.902 111.433C143.329 111.201 143.666 110.833 143.857 110.387C143.935 110.107 143.935 109.879 143.857 109.721C142.988 107.365 143.378 104.866 143.378 104.866C143.388 104.565 143.189 104.337 142.996 104.295H142.421L143.187 102.393C143.216 102.279 143.203 102.159 143.151 102.055C143.098 101.95 143.01 101.867 142.902 101.821L142.137 101.631L142.517 99.3474C142.585 99.1419 142.469 98.9139 142.326 98.8713C139.946 98.0016 139.457 96.8311 139.362 96.5855C139.143 91.4904 141.983 88.6057 144.24 86.3075C146.574 83.8388 151.88 84.2399 156.669 84.7863C161.691 85.4102 168.173 85.8939 170.726 85.5481C172.705 85.3827 174.828 84.2123 175.697 83.7411C176.377 85.0117 178.384 89.2924 178.278 91.7335C177.984 94.8587 180.623 100.312 180.764 100.678C183.347 107.879 181.97 110.761 180.859 113.049C180.708 113.387 180.595 113.645 180.383 113.999C179.275 116.525 175.43 122.264 171.968 125.325C169.52 127.518 167.17 127.405 163.746 127.608C162.237 127.746 160.343 127.347 158.392 126.751C152.084 124.921 144.653 120.152 144.625 120.089C144.506 120.031 144.375 119.999 144.242 119.996Z" fill="white"/>
<path d="M170.059 128.753L169.772 127.61C168.034 128.347 166.941 128.693 165.564 129.325C164.073 129.949 161.406 129.663 159.349 128.944C155.899 127.635 152.542 125.781 149.979 124.47C150.047 124.951 150.019 125.407 149.979 125.708C150.419 126.179 152.744 128.52 154.856 132.274C154.924 132.317 155.01 132.347 155.048 132.37C156.473 133.545 162.411 135.4 166.425 133.798C168.465 133.004 169.638 131.377 169.963 129.041C169.963 129.041 169.956 129.009 169.963 128.946C169.956 128.861 169.983 128.803 170.059 128.753ZM175.508 149.971C173.74 150.014 172.308 151.442 172.353 153.206C172.305 154.011 172.678 154.78 173.214 155.394C173.854 155.953 174.629 156.294 175.508 156.251C176.322 156.294 177.153 155.953 177.802 155.394C178.329 154.78 178.643 154.011 178.664 153.206C178.649 152.369 178.345 151.563 177.802 150.923C177.158 150.373 176.355 150.039 175.508 149.971ZM153.708 147.878C153.174 148.587 152.545 147.816 152.943 147.402C154.091 146.219 156.156 146.389 156.959 147.688C157.218 148.101 156.617 148.7 156.194 147.973C155.728 147.189 154.265 147.217 153.708 147.878ZM138.793 100.109C139.206 99.4578 140.152 99.771 139.843 100.395C139.289 101.4 139.032 102.513 138.982 103.726C138.974 104.483 138.027 104.255 137.931 103.44C137.916 102.312 138.203 101.057 138.793 100.109ZM135.736 98.8713C136.224 98.2873 137.428 98.6858 137.168 99.4427C136.939 100.4 136.884 101.4 136.69 102.583C136.539 103.367 135.134 103.167 135.063 102.393C134.902 101.197 135.046 99.8286 135.736 98.8713ZM133.439 98.8713C133.784 98.172 134.502 98.1996 134.298 98.9665C134.071 99.9715 134.099 100.227 134.106 100.776C134.068 101.485 133.265 101.37 133.149 100.586C133.124 99.8286 133.212 99.3424 133.439 98.8713ZM139.463 79.2674C140.354 78.3602 141.356 77.7888 142.522 77.7462C143.048 78.5031 143.882 78.9016 145.008 78.889C142.979 79.7678 141.081 80.9197 139.367 82.3126C139.722 81.3577 139.923 80.4153 139.463 79.2674ZM157.533 64.5208C156.934 64.9995 156.418 64.5158 156.959 63.9494C157.478 63.403 158.107 63.0597 158.777 63.0923C159.744 63.0897 160.117 63.4882 159.158 63.7589C158.579 63.9253 158.03 64.1825 157.533 64.5208ZM172.927 69.5634C175.377 72.1673 175.319 75.6209 172.736 79.9341C172.549 79.4621 172.214 79.0624 171.781 78.7938C171.046 79.4179 170.187 79.7011 169.296 79.9341C172.708 77.1899 174.717 73.9918 172.927 69.5634ZM177.039 72.5132C177.07 72.1097 177.47 72.0245 177.515 72.4179C177.727 74.0072 177.63 75.6223 177.228 77.1748C177.012 78.2174 176.291 78.1297 176.463 77.0795C176.694 75.7062 176.896 74.5357 177.039 72.5132ZM178.568 83.9316C178.732 83.9291 178.903 84.4128 178.951 84.9792C178.903 85.5556 178.732 86.0393 178.568 86.0268C178.387 86.0393 178.243 85.5556 178.281 84.9792C178.243 84.4128 178.389 83.9266 178.568 83.9316ZM132.865 153.968L131.623 152.826C131.117 153.409 130.573 154.039 129.997 154.633C129.367 155.409 128.707 156.124 128.083 156.916L128.944 157.963C130.078 156.473 131.395 155.131 132.865 153.968ZM125.121 164.532L123.973 163.199C123.285 164.918 122.656 167.001 122.444 169.098L123.495 169.67C123.918 167.858 124.492 166.117 125.121 164.532ZM141.948 150.164C140.409 152.302 139.118 154.527 138.314 155.683C137.055 155.297 136.194 154.81 134.68 153.683C135.461 153.102 136.293 152.592 137.166 152.161C137.282 152.129 137.367 152.101 137.453 151.971C138.863 151.272 140.382 150.643 141.948 150.164ZM129.329 158.823L132.58 161.582C132.58 161.582 129.913 165.632 129.042 167.482C129.042 167.482 127.274 166.544 125.887 165.008C126.754 162.804 127.911 160.724 129.329 158.823ZM123.88 171.857C124.665 172.938 125.869 174.278 126.748 174.712L126.652 178.993C125.298 178.046 124.122 176.991 123.401 175.662C123.346 175.562 123.346 175.476 123.306 175.472C123.288 175.419 123.306 175.376 123.306 175.376C123.429 174.194 123.631 173.026 123.88 171.857ZM127.32 174.236C127.32 174.236 127.962 170.339 129.042 168.811L132.676 170.429C132.676 170.429 131.694 173.993 131.432 176.427C130.43 176.051 128.622 175.564 127.32 174.236ZM135.35 162.722C134.96 162.319 134.129 161.918 133.343 161.485C134.413 159.748 136.108 157.863 137.931 156.251C138.229 156.352 138.488 156.61 138.697 156.632C137.199 158.978 136.078 160.808 135.35 162.722ZM131.623 179.281C131.89 177.562 132.15 175.907 132.58 174.332C134.529 172.968 136.481 171.968 138.508 171.001C137.947 172.595 137.574 174.537 137.267 176.233C135.305 177.219 133.439 178.249 131.623 179.281ZM135.446 165.292C135.446 165.292 136.71 160.404 139.654 156.728L145.008 154.921C145.008 154.921 141.815 160.322 141.47 161.963C139.865 162.319 137.055 164.174 135.446 165.292ZM139.654 169.67C139.654 169.67 140.696 164.432 141.757 162.437C141.757 162.437 145.889 160.234 149.787 159.963C149.787 159.963 147.982 165.46 147.11 166.816C145.745 167.143 141.414 168.457 139.654 169.67ZM145.869 172.144C146.234 170.512 146.979 167.886 147.591 166.91C147.591 166.91 151.369 165.087 154.763 165.768C154.763 165.768 154.814 167.515 154.093 169.575C153.922 169.599 153.779 169.573 153.615 169.575L152.945 169.48C152.859 169.484 152.804 169.512 152.754 169.48C150.392 170.312 148.07 171.199 145.869 172.144ZM160.593 168.146C159.283 167.229 157.362 166.001 155.813 165.672L158.299 159.963C158.299 159.963 160.459 159.522 163.174 162.533C163.101 162.803 162.955 163.06 162.887 163.295C162.069 164.888 161.263 166.487 160.593 168.146ZM158.107 159.297C158.107 159.297 154.466 158.379 151.318 158.916L153.612 152.826C153.612 152.826 156.846 151.953 159.923 153.968C159.429 155.409 159.084 156.896 158.107 159.297ZM153.325 152.159L146.347 153.778L147.496 148.923C149.298 148.647 151.121 148.521 152.945 148.545C153.26 149.329 153.605 150.585 153.325 152.159ZM165.471 157.49C164.879 156.552 163.214 154.44 160.497 153.683C160.497 153.683 160.804 151.272 160.21 149.212C162.066 149.73 164.073 151.244 165.088 153.114C165.652 154.069 166.198 155.698 165.471 157.49ZM166.138 153.302L166.616 148.923C168.12 149.044 169.724 148.986 171.109 148.638C171.101 152.412 170.787 155.036 170.824 155.109C170.729 155.237 170.817 155.379 170.92 155.49C170.96 155.495 170.92 155.49 170.92 155.49L166.715 156.156C166.742 155.174 166.545 154.198 166.138 153.302ZM172.736 156.728C172.292 158.702 171.815 160.669 171.303 162.627C171.303 162.627 173.139 162.66 175.128 162.437C175.234 162.033 175.38 161.69 175.606 161.487C175.921 161.176 176.41 160.693 177.231 160.058C176.468 159.835 176.15 159.492 176.082 159.109C175.405 158.635 173.97 157.607 172.736 156.728ZM163.652 163.58C165.881 163.545 169.266 163.459 170.343 163.295C170.343 163.295 169.15 167.114 167.667 169.86C167.667 169.86 164.504 170.342 160.877 169.765C161.635 167.63 162.638 165.632 163.554 163.675C163.615 163.633 163.615 163.633 163.652 163.58ZM166.616 176.617C165.627 176.654 164.637 176.622 163.652 176.522C163.652 176.522 166.254 171.825 167.762 170.622C167.762 170.622 170.011 169.943 172.829 169.86C171.016 172.682 168.923 174.966 166.616 176.617ZM161.358 176.71C161.779 176.878 162.24 176.991 162.602 176.9C163.129 176.878 161.608 178.447 160.5 179.565H160.404C160.948 178.62 161.263 177.65 161.358 176.71ZM154.378 172.144C153.635 172.367 153.806 171.199 154.569 171.095C155.409 170.962 156.269 171.071 157.049 171.408C157.828 171.746 158.495 172.299 158.969 173.001C157.621 172.253 156.131 171.796 154.378 172.144ZM151.892 171.953C152.258 171.968 152.6 172.197 152.562 172.43C152.603 172.74 152.258 172.968 151.892 173.001C151.424 172.968 151.109 172.74 151.127 172.43C151.109 172.197 151.424 171.968 151.892 171.953ZM155.909 196.789C155.269 196.319 154.524 195.692 154.093 194.885C154.093 194.885 157.737 191.178 159.16 188.512C159.16 188.512 159.744 188.384 160.787 189.274C159.532 191.999 157.889 194.53 155.909 196.789ZM160.88 180.327C160.691 182.644 160.001 184.928 158.969 187.274C158.969 187.274 156.989 186.214 156.196 183.942C157.536 182.988 158.828 181.903 159.83 180.612C160.175 180.502 160.517 180.447 160.88 180.327ZM121.775 215.441C121.309 215.276 120.936 215.017 120.724 214.584C120.765 213.99 121.022 213.619 121.586 213.441C121.815 213.893 122.183 214.26 122.636 214.488C122.397 214.96 122.14 215.303 121.775 215.441ZM123.019 211.539C123.316 211.537 123.603 211.82 123.593 212.206C123.603 212.534 123.318 212.82 123.019 212.777C122.626 212.82 122.339 212.534 122.349 212.206C122.344 212.117 122.358 212.028 122.39 211.945C122.422 211.862 122.471 211.787 122.534 211.724C122.598 211.661 122.673 211.612 122.757 211.58C122.84 211.548 122.929 211.535 123.019 211.539ZM121.966 200.026C122.253 200.03 122.543 200.286 122.54 200.597C122.539 200.758 122.48 200.913 122.375 201.034C122.27 201.156 122.125 201.237 121.966 201.263C121.794 201.248 121.632 201.172 121.51 201.051C121.388 200.929 121.312 200.768 121.296 200.597C121.318 200.436 121.398 200.29 121.521 200.184C121.645 200.078 121.803 200.022 121.966 200.026ZM153.136 195.171C153.136 195.171 149.188 198.459 146.634 199.55C146.634 199.55 143.998 195.833 143.958 192.602C143.958 192.602 146.408 190.552 149.981 189.557C150.422 191.266 152.028 193.978 153.136 195.171ZM140.324 207.068C139.609 205.828 138.891 204.341 138.795 202.976L146.252 200.216C146.252 200.216 147.037 201.913 148.354 203.354C145.861 204.882 143.192 206.168 140.324 207.068ZM123.207 204.497C124.862 204.169 127.415 203.77 129.997 203.925C129.997 203.925 130.256 206.481 131.145 208.587C129.165 208.848 127.216 209.249 125.408 210.205C124.275 208.481 123.525 206.534 123.207 204.497ZM137.934 202.499C137.934 202.499 131.863 203.627 130.571 203.354C130.571 203.354 129.828 198.457 130.571 195.361C130.571 195.361 134.245 194.434 136.786 194.79C136.738 196.689 137.312 199.687 137.934 202.499ZM134.489 184.324L140.321 187.274C139.032 188.354 136.68 189.78 133.723 189.176C132.578 188.896 131.487 188.068 130.855 187.083C131.432 185.329 132.895 184.73 134.489 184.324ZM140.611 185.562C140.611 185.815 140.641 186.156 140.611 186.419L134.97 183.66L135.066 182.707L140.611 185.562ZM125.313 190.604C125.439 190.604 125.56 190.655 125.649 190.743C125.738 190.832 125.789 190.953 125.789 191.078C125.781 191.322 125.58 191.522 125.313 191.555C125.192 191.538 125.079 191.483 124.993 191.397C124.906 191.31 124.851 191.199 124.834 191.078C124.864 190.81 125.063 190.609 125.313 190.604ZM149.503 186.61C149.676 187.642 150.077 188.416 150.077 188.416C151.311 187.813 151.799 187.013 151.892 186.226C151.122 186.483 150.315 186.612 149.503 186.61ZM141.47 186.512C141.872 186.47 142.389 186.47 143.096 186.607C143.096 186.607 143.048 190.351 143.383 192.126C143.383 192.126 138.604 193.89 137.743 194.219C137.743 194.219 137.314 192.066 137.456 189.84C139.236 189.266 140.583 188.209 141.376 187.461C141.42 187.429 141.452 187.385 141.469 187.334C141.486 187.283 141.487 187.227 141.472 187.176C141.503 186.955 141.502 186.731 141.47 186.512ZM125.121 194.126L129.901 194.507C129.901 194.507 130.858 191.409 132.291 189.462C131.385 189.013 130.624 188.321 130.092 187.465C127.99 189.609 126.328 191.865 125.121 194.126Z" fill="white"/>
<path d="M160.21 138.365C160.631 138.425 161.061 138.482 161.454 138.555C161.837 138.568 162.096 138.598 162.313 138.65C162.439 138.74 162.612 138.856 162.791 139.031C162.927 139.169 163.041 139.369 163.172 139.505C163.184 139.738 163.212 139.881 163.172 139.981C163.124 140.166 163.068 140.282 162.98 140.362C163.154 140.397 163.325 140.537 163.459 140.648C163.631 140.829 163.732 141.065 163.746 141.314C163.829 141.529 163.829 141.766 163.746 141.981C163.626 142.13 163.456 142.231 163.267 142.267C162.978 142.265 162.689 142.233 162.406 142.171C162.051 142.138 161.7 142.074 161.356 141.981C161.232 141.397 161.119 140.796 160.877 140.171C160.719 139.565 160.459 138.966 160.21 138.365Z" fill="#3697EC"/>
<path d="M161.167 139.029C161.235 139.337 161.348 139.623 161.454 139.883C161.58 139.936 161.724 139.936 161.837 139.979C162.124 139.993 162.298 140.021 162.313 139.979C162.439 139.993 162.524 139.966 162.6 139.883C162.582 139.823 162.582 139.735 162.504 139.598C162.497 139.507 162.439 139.422 162.313 139.312C162.295 139.249 162.209 139.222 162.121 139.217C162.036 139.164 161.837 139.136 161.452 139.121C161.379 139.081 161.235 139.081 161.167 139.029ZM161.645 140.552C161.724 140.853 161.809 141.194 161.837 141.502L162.507 141.598C162.665 141.621 162.827 141.621 162.985 141.598C163.043 141.595 163.073 141.535 163.081 141.502C163.159 141.395 163.159 141.307 163.176 141.217C163.11 141.091 163.046 140.964 162.985 140.836C162.899 140.793 162.814 140.735 162.698 140.74C162.612 140.65 162.439 140.62 162.124 140.55C161.98 140.565 161.809 140.537 161.645 140.552Z" fill="white"/>
<path d="M164.514 142.359C164.39 141.765 164.277 141.136 164.131 140.552C163.932 139.881 163.673 139.252 163.461 138.648C163.652 138.625 163.845 138.625 164.035 138.648C164.305 139.252 164.562 139.881 164.705 140.552C164.909 141.166 165.022 141.796 165.088 142.455L164.514 142.359ZM166.903 141.026C166.863 140.805 166.831 140.583 166.808 140.359C167.201 140.307 167.659 140.252 168.145 140.169C168.233 140.738 168.346 141.249 168.432 141.788C168.264 141.972 168.071 142.133 167.858 142.264C167.663 142.402 167.427 142.469 167.188 142.455C166.888 142.486 166.585 142.419 166.327 142.264C166.08 142.136 165.879 141.878 165.657 141.598C165.476 141.26 165.317 140.911 165.181 140.552C165.111 140.176 165.079 139.793 165.085 139.41C165.118 139.165 165.217 138.935 165.372 138.743C165.565 138.589 165.797 138.49 166.042 138.457C166.402 138.44 166.761 138.505 167.092 138.648C167.42 138.86 167.685 139.156 167.858 139.505C167.656 139.567 167.458 139.625 167.284 139.695C167.196 139.534 167.063 139.402 166.901 139.314C166.736 139.19 166.534 139.123 166.327 139.124C166.08 139.169 165.909 139.282 165.851 139.505C165.738 139.738 165.765 140.054 165.851 140.457C165.997 140.938 166.166 141.282 166.327 141.502C166.569 141.735 166.798 141.821 167.092 141.788C167.17 141.823 167.286 141.765 167.379 141.693C167.543 141.62 167.629 141.535 167.762 141.407C167.685 141.261 167.652 141.095 167.667 140.931C167.402 140.966 167.145 140.966 166.903 141.026ZM160.593 142.547C161.006 142.65 161.434 142.763 161.837 142.833C162.21 142.876 162.439 142.963 162.602 143.024C162.728 143.104 162.869 143.247 162.985 143.402C163.075 143.583 163.14 143.775 163.177 143.973C163.129 144.131 163.103 144.274 162.985 144.45C162.915 144.544 162.813 144.612 162.698 144.64C162.877 144.75 163.012 144.918 163.081 145.116C163.187 145.247 163.214 145.417 163.177 145.688C163.156 145.907 163.054 146.111 162.889 146.259C162.821 146.346 162.734 146.416 162.634 146.466C162.535 146.515 162.426 146.542 162.315 146.545C162.242 146.56 161.953 146.502 161.457 146.45C161.152 146.332 160.807 146.244 160.5 146.164C160.578 145.56 160.663 144.961 160.691 144.354C160.691 143.763 160.661 143.164 160.593 142.547Z" fill="#3697EC"/>
<path d="M161.263 143.312C161.293 143.593 161.321 143.878 161.358 144.166C161.436 144.191 161.58 144.219 161.741 144.262C161.983 144.307 162.124 144.307 162.22 144.357C162.298 144.332 162.383 144.304 162.411 144.262C162.499 144.161 162.527 144.076 162.507 143.976C162.527 143.848 162.499 143.763 162.411 143.69C162.383 143.62 162.328 143.562 162.315 143.5C162.184 143.505 161.983 143.447 161.645 143.405C161.521 143.363 161.393 143.332 161.263 143.312ZM161.263 144.738C161.263 145.076 161.235 145.389 161.167 145.69C161.379 145.763 161.58 145.818 161.741 145.881C162.011 145.906 162.182 145.906 162.22 145.881C162.325 145.906 162.383 145.848 162.411 145.785C162.499 145.733 162.557 145.62 162.602 145.502C162.587 145.402 162.555 145.306 162.507 145.217C162.469 145.136 162.413 145.051 162.315 145.026C162.242 144.966 162.069 144.936 161.741 144.836C161.638 144.818 161.464 144.79 161.263 144.738Z" fill="white"/>
<path d="M163.652 144.928C163.703 144.507 163.758 144.164 163.844 143.883C163.99 143.623 164.159 143.395 164.322 143.312C164.551 143.17 164.819 143.103 165.088 143.121C165.566 143.134 165.939 143.307 166.236 143.693C166.516 143.993 166.657 144.477 166.619 145.119C166.543 145.733 166.314 146.219 165.949 146.545C165.805 146.699 165.625 146.815 165.424 146.882C165.223 146.948 165.009 146.963 164.801 146.926C164.627 146.933 164.455 146.893 164.303 146.809C164.151 146.725 164.025 146.6 163.94 146.45C163.673 146.046 163.615 145.562 163.652 144.928Z" fill="#3697EC"/>
<path d="M164.322 145.024C164.251 145.343 164.285 145.677 164.418 145.976C164.481 146.076 164.565 146.162 164.664 146.228C164.763 146.294 164.875 146.338 164.992 146.357C165.194 146.362 165.423 146.249 165.662 146.071C165.841 145.785 165.941 145.456 165.949 145.119C165.999 144.648 165.939 144.307 165.758 144.074C165.699 143.977 165.613 143.899 165.512 143.849C165.41 143.798 165.297 143.777 165.184 143.788C164.906 143.735 164.708 143.848 164.609 144.074C164.39 144.249 164.305 144.562 164.322 145.024Z" fill="white"/>
<path d="M167.478 147.021C167.631 146.447 167.745 145.931 167.86 145.404C167.689 145.019 167.518 144.648 167.382 144.262C167.17 143.925 166.978 143.576 166.808 143.217C167.027 143.194 167.259 143.194 167.478 143.121C167.745 143.678 168.004 144.164 168.243 144.643C168.465 144.134 168.694 143.592 168.913 143.026C169.155 143.021 169.384 142.991 169.679 142.931C169.47 143.364 169.268 143.763 169.104 144.166C168.865 144.562 168.666 144.961 168.435 145.404C168.349 145.903 168.233 146.417 168.147 146.926C167.925 146.959 167.701 146.991 167.478 147.021ZM175.508 155.394C175.212 155.423 174.912 155.387 174.631 155.288C174.35 155.189 174.094 155.03 173.882 154.823C173.423 154.352 173.166 153.78 173.212 153.204C173.192 152.901 173.242 152.598 173.358 152.317C173.474 152.036 173.653 151.786 173.882 151.585C174.302 151.127 174.886 150.854 175.508 150.823C176.12 150.866 176.694 151.124 177.135 151.585C177.586 152.008 177.785 152.577 177.805 153.204C177.806 153.5 177.746 153.793 177.629 154.065C177.513 154.338 177.342 154.584 177.128 154.788C176.913 154.993 176.659 155.152 176.38 155.257C176.102 155.361 175.805 155.408 175.508 155.394Z" fill="#3697EC"/>
<path d="M176.944 151.876C176.324 150.873 175.176 150.901 174.362 151.495C173.542 152.069 173.111 153.184 173.788 154.349C174.143 154.926 174.516 154.896 174.745 154.73C174.947 154.497 175.005 154.126 174.65 153.968C174.116 153.269 174.345 152.582 174.841 152.254C175.234 151.841 175.894 151.783 176.181 152.349C176.354 152.582 176.611 152.582 176.85 152.445C176.981 152.357 177.097 152.129 176.944 151.876Z" fill="white"/>
<path d="M175.7 152.638C175.405 152.612 175.146 152.841 175.125 153.209C175.146 153.384 175.289 153.5 175.317 153.59C175.405 153.612 175.518 153.698 175.7 153.685C175.921 153.7 176.035 153.615 176.082 153.59C176.187 153.488 176.254 153.354 176.274 153.209C176.236 152.986 176.178 152.843 176.082 152.828C176.035 152.698 175.921 152.612 175.7 152.638Z" fill="white"/>
<path d="M141.948 116.094C141.413 115.891 140.958 115.522 140.648 115.043C140.338 114.564 140.19 113.999 140.226 113.43V113.335C140.208 112.275 139.606 111.961 139.077 111.716L138.886 111.62C138.055 111.102 137.166 111.102 136.015 111.525C134.64 112.129 134.154 113.442 134.774 115.142C135.3 116.64 137.654 118.212 137.738 118.282C137.941 118.41 138.226 118.382 138.312 118.187C138.458 117.984 138.427 117.698 138.216 117.615C137.594 117.152 135.932 115.926 135.635 114.853C135.245 113.984 135.129 112.813 136.305 112.38C137.453 111.929 137.997 112.069 138.503 112.285L138.694 112.475C139.145 112.698 139.347 112.813 139.364 113.332C139.261 114.184 139.634 115.984 141.658 116.854C141.815 116.954 142.071 116.838 142.233 116.663C142.251 116.55 142.233 116.435 142.182 116.333C142.131 116.231 142.049 116.148 141.948 116.094ZM173.118 122.565C173.282 122.495 173.368 122.209 173.214 121.994C173.139 121.808 172.852 121.781 172.64 121.899C167.745 124.949 158.767 121.493 158.681 121.422C158.452 121.352 158.195 121.493 158.107 121.708C158.052 121.894 158.165 122.179 158.394 122.279C158.767 122.382 167.86 125.921 173.118 122.565ZM169.2 119.615C169.467 119.64 169.671 119.44 169.676 119.237C169.726 118.984 169.522 118.783 169.293 118.761C167.057 118.613 166.14 120.127 166.138 120.189C165.997 120.412 166.083 120.64 166.329 120.761C166.485 120.868 166.712 120.813 166.903 120.57C166.886 120.555 167.546 119.498 169.2 119.615ZM154.665 89.4503C154.924 89.4378 155.096 89.2373 155.141 88.9767C155.123 88.7536 154.924 88.6108 154.665 88.5957C148.843 88.4403 146.289 95.147 146.156 95.4477C146.09 95.6608 146.206 95.8889 146.443 96.0192C146.557 96.0375 146.673 96.0198 146.776 95.9686C146.879 95.9172 146.964 95.835 147.017 95.7335C146.979 95.6582 149.447 89.3225 154.665 89.4503ZM168.435 89.3551C168.578 89.2072 171.59 85.5832 175.987 88.9741C176.123 89.1219 176.41 89.0919 176.561 88.8789C176.694 88.7234 176.667 88.4377 176.465 88.3074C174.861 87.0644 173.254 86.5506 171.59 86.6885C169.268 87.0067 167.863 88.8062 167.765 88.8764C167.659 89.0317 167.689 89.32 167.86 89.4478C168.062 89.6082 168.349 89.5807 168.435 89.3551ZM151.51 100.871C150.104 103.54 151.281 107.052 151.318 107.152C151.396 107.395 151.683 107.538 151.892 107.438C153.174 106.851 161.58 104.653 161.645 104.58C161.867 104.568 162.011 104.282 161.932 104.107C161.925 104.054 161.895 103.969 161.932 103.916C160.49 98.0893 156.962 98.0041 155.048 98.4928C153.376 98.8587 152.2 99.6582 151.51 100.871ZM167.86 103.438C169.238 102.966 177.785 101.34 177.901 101.345C178.102 101.255 178.273 100.999 178.188 100.773C178.188 100.741 178.16 100.626 178.188 100.488C177.097 95.0016 174.03 94.3174 171.59 94.7785C170.013 95.0016 168.78 95.7435 168.052 96.969C166.4 99.4 167.316 102.997 167.382 103.154C167.402 103.367 167.689 103.538 167.86 103.438ZM168.626 117.618C171.849 116.956 174.231 113.245 175.987 108.292C177.012 108.563 178.243 108.736 179.525 108.578C179.822 108.565 179.996 108.365 179.905 108.104C179.935 107.881 179.734 107.738 179.525 107.723C178.188 107.881 176.981 107.681 175.987 107.44C175.911 107.351 175.811 107.285 175.7 107.25C174.583 106.915 173.543 106.365 172.64 105.631C172.449 105.455 172.164 105.513 172.066 105.726C167.802 109.879 164.247 108.823 164.035 108.771C163.874 108.711 163.645 108.823 163.559 109.057C163.474 109.252 163.59 109.508 163.846 109.628C164.02 109.623 167.863 110.793 172.355 106.488C172.796 106.881 173.829 107.538 175.128 108.009C173.486 112.648 171.22 115.302 168.341 115.906C164.02 116.816 159.46 112.761 158.11 111.433C158.629 111.189 159.115 110.876 159.641 110.483C159.805 110.307 159.832 110.079 159.641 109.911C159.545 109.706 159.261 109.678 159.067 109.816C154.64 113.33 148.359 110.42 148.359 110.387C148.075 110.307 147.843 110.392 147.785 110.578C147.614 110.821 147.7 111.079 147.881 111.149C148.16 111.277 152.864 113.448 157.251 111.816C158.339 112.931 163.559 118.698 168.626 117.618Z" fill="#3697EC"/>
<path d="M178.376 106.578C178.157 106.593 177.986 106.793 178.089 107.054C178.044 107.28 178.243 107.45 178.472 107.435C179.507 107.332 181.401 106.593 181.245 104.673C181.285 104.45 181.084 104.28 180.862 104.292C180.625 104.335 180.424 104.535 180.479 104.768C180.54 106.307 178.475 106.565 178.376 106.578ZM154.665 112.573C154.265 112.56 153.95 112.844 153.995 113.239C153.947 113.33 154.035 113.5 154.187 113.62C154.265 113.728 154.436 113.786 154.665 113.811C154.835 113.779 154.996 113.714 155.141 113.62C155.209 113.505 155.242 113.373 155.237 113.239C155.242 112.846 154.952 112.56 154.665 112.573ZM161.358 108.768C161.321 108.906 161.409 109.022 161.55 109.149C161.687 109.259 161.853 109.325 162.028 109.34C162.168 109.307 162.298 109.241 162.409 109.149C162.465 109.103 162.512 109.045 162.545 108.979C162.578 108.913 162.596 108.842 162.6 108.768C162.582 108.365 162.295 108.079 162.026 108.102C161.608 108.079 161.321 108.365 161.358 108.768ZM152.658 108.768C152.658 108.906 152.746 109.022 152.849 109.149C152.975 109.25 153.146 109.307 153.328 109.34C153.499 109.31 153.662 109.245 153.806 109.149C154.038 108.906 153.98 108.535 153.806 108.292C153.663 108.164 153.491 108.079 153.328 108.102C152.945 108.079 152.658 108.365 152.658 108.768ZM165.088 106.864C165.252 106.879 165.423 106.851 165.564 106.673C165.795 106.478 165.738 106.107 165.564 105.911C165.423 105.736 165.249 105.678 165.088 105.721C164.708 105.676 164.418 105.934 164.418 106.292C164.418 106.478 164.504 106.593 164.609 106.673C164.735 106.851 164.907 106.879 165.088 106.864ZM168.91 105.247C168.951 105.595 169.238 105.879 169.58 105.914C169.956 105.881 170.243 105.595 170.25 105.247C170.251 105.173 170.233 105.1 170.2 105.034C170.167 104.968 170.118 104.91 170.059 104.866C170.004 104.795 169.93 104.739 169.846 104.705C169.762 104.672 169.67 104.662 169.58 104.676C169.238 104.653 168.951 104.939 168.91 105.247ZM174.838 102.678C174.916 102.911 175.204 102.997 175.412 102.869C175.412 102.869 176.523 102.312 179.139 102.012C179.361 102.027 179.532 101.826 179.522 101.631C179.505 101.34 179.273 101.197 179.044 101.154C176.294 101.51 175.032 102.112 175.032 102.202C174.803 102.227 174.717 102.51 174.838 102.678Z" fill="#3697EC"/>
<path d="M160.976 103.914C160.691 104.024 160.145 104.137 159.543 104.295C158.568 104.337 158.281 104.024 158.107 103.723C158.107 103.723 158.08 103.681 158.107 103.628C158.138 103.595 158.281 103.565 158.394 103.533C158.458 103.522 158.518 103.498 158.572 103.462C158.626 103.427 158.672 103.382 158.708 103.328C158.744 103.275 158.768 103.215 158.78 103.152C158.792 103.089 158.791 103.024 158.777 102.961C158.483 102.082 157.478 101.54 157.342 101.535C157.191 101.428 156.989 101.428 156.863 101.535L155.715 102.488L155.906 100.966C155.917 100.9 155.914 100.832 155.898 100.766C155.881 100.701 155.852 100.639 155.811 100.586C155.306 100.125 154.673 99.8266 153.995 99.7284C154.408 99.5429 154.751 99.4 155.141 99.2547C158.08 98.6005 160.059 100.169 160.976 103.914ZM171.779 95.5429C174.743 95.0894 176.523 96.7183 177.324 100.586C176.923 100.631 176.465 100.743 175.795 100.871C174.831 100.829 174.516 100.513 174.36 100.109C174.428 100.084 174.544 100.057 174.647 100.014C174.914 100.029 175.06 99.771 175.03 99.5379C174.859 98.6005 173.942 97.9715 173.786 97.9214C173.72 97.863 173.635 97.8309 173.547 97.8309C173.458 97.8309 173.373 97.863 173.307 97.9214L172.063 98.776L172.35 97.2547C172.391 97.147 172.36 97.0016 172.255 96.8737C171.813 96.4105 171.249 96.0804 170.628 95.9214C170.988 95.7735 171.331 95.6582 171.779 95.5429Z" fill="white"/>
<path d="M136.977 215.156C136.972 214.749 136.887 214.347 136.726 213.974C136.564 213.6 136.33 213.262 136.037 212.979C135.743 212.695 135.397 212.473 135.016 212.324C134.636 212.175 134.23 212.103 133.822 212.111C132.092 212.076 130.686 213.476 130.762 215.156C130.745 215.565 130.811 215.973 130.957 216.356C131.104 216.738 131.327 217.087 131.613 217.381C131.9 217.674 132.243 217.907 132.623 218.064C133.002 218.222 133.41 218.3 133.822 218.296C134.237 218.298 134.648 218.219 135.032 218.062C135.416 217.905 135.765 217.674 136.059 217.382C136.352 217.09 136.585 216.742 136.742 216.361C136.9 215.978 136.98 215.569 136.977 215.156Z" fill="#3697EC"/>
<path d="M136.594 215.156C136.605 215.521 136.541 215.885 136.406 216.225C136.271 216.564 136.067 216.873 135.807 217.131C135.547 217.39 135.237 217.593 134.896 217.727C134.554 217.862 134.189 217.926 133.822 217.915C132.293 217.96 131.059 216.732 131.049 215.156C131.063 214.428 131.359 213.734 131.876 213.218C132.393 212.704 133.09 212.408 133.822 212.393C135.363 212.419 136.624 213.674 136.594 215.156Z" fill="white"/>
<path d="M132.673 216.774H133.152V215.346H134.202C134.957 215.334 134.758 215.988 134.872 216.391V216.772H135.446C135.247 216.529 135.302 216.443 135.255 216.01C135.217 215.387 135.217 215.331 134.874 215.156C135.189 214.875 135.335 214.702 135.35 214.203C135.277 213.476 134.758 213.388 134.202 213.346H132.673V216.774Z" fill="#3697EC"/>
<path d="M134.204 213.727C134.504 213.76 134.932 213.847 134.874 214.394C134.819 214.872 134.529 214.96 134.204 214.965H133.154V213.727H134.204ZM198.648 212.301L200.272 208.113L201.995 212.301H198.648ZM156.292 206.02C156.39 205.454 156.445 205.256 157.44 205.258C158.77 205.256 159.487 205.996 159.447 207.732C159.487 209.993 158.598 210.394 156.292 210.396V206.02ZM235.364 212.301L236.988 208.113L238.71 212.301H235.364ZM224.366 206.02C224.424 205.454 224.455 205.256 225.417 205.258C226.804 205.256 227.522 205.996 227.52 207.732C227.52 209.993 226.631 210.394 224.364 210.396V206.02H224.366ZM273.034 208.208C273.016 206.311 274.049 205.882 274.945 205.926C277.002 205.882 278.236 208.765 278.196 210.682C278.236 212.903 276.685 213.532 275.711 213.917C274.824 212.732 273.016 210.135 273.034 208.208ZM268.637 221.341C268.6 219.614 269.372 218.671 271.314 217.534L273.037 220.293C274.482 222.611 276.318 225.579 277.72 227.526C276.718 228.293 275.542 229.008 274.469 229.048C271.039 229.005 268.6 223.953 268.637 221.341ZM303.343 227.622L304.97 223.434L306.785 227.622H303.343ZM293.973 221.436C294.04 221.013 294.04 220.554 294.929 220.579C296.337 220.554 296.71 221.581 296.745 222.767C296.708 224.552 296.335 225.293 293.973 225.336V221.436ZM341.111 208.875C341.12 209.239 341.054 209.602 340.918 209.942C340.782 210.28 340.579 210.588 340.319 210.846C340.06 211.105 339.751 211.307 339.41 211.443C339.069 211.578 338.706 211.643 338.339 211.635C336.838 211.68 335.606 210.421 335.566 208.875C335.584 208.149 335.883 207.458 336.398 206.944C336.914 206.431 337.61 206.134 338.339 206.115C339.907 206.138 341.141 207.394 341.111 208.875Z" fill="white"/>
<path d="M337.193 210.491H337.669V209.065H338.817C339.504 209.051 339.305 209.68 339.391 210.111L339.487 210.491H339.965C339.766 210.221 339.852 210.163 339.774 209.732C339.738 209.108 339.738 209.051 339.391 208.78C339.738 208.564 339.852 208.422 339.87 207.923C339.794 207.196 339.277 207.08 338.721 207.066H337.193V210.491Z" fill="#3697EC"/>
<path d="M338.721 207.446C339.019 207.479 339.449 207.564 339.391 208.114C339.336 208.594 339.049 208.68 338.721 208.685H337.669V207.446H338.721Z" fill="white"/>
</svg>
