<svg width="462" height="290" viewBox="0 0 462 290" fill="none" xmlns="http://www.w3.org/2000/svg">
<rect width="462" height="290" fill="#FAFAFA"/>
<path d="M208.714 143.672C204.989 143.672 201.969 141.494 201.969 138.805C201.969 136.116 204.989 133.938 208.714 133.938C212.44 133.938 215.47 136.116 215.47 138.805C215.47 141.494 212.45 143.672 208.714 143.672ZM374.9 150.09C376.687 148.351 378.286 146.43 379.674 144.359C377.037 143.702 375.44 142.141 375.468 137.667C375.499 136.003 376.173 134.415 377.349 133.239C378.525 132.062 380.111 131.387 381.772 131.357C383.107 131.357 387.92 132.152 387.313 137.667C386.734 142.828 378.91 150.669 374.9 152.582V150.09ZM398.588 150.659C392.862 148.176 386.94 153.142 391.714 157.548C394.165 159.805 396.921 162.111 399.02 164.495C401.009 166.752 402.411 169.078 402.411 171.492C402.411 175.123 398.401 185.259 385.606 185.446C372.812 185.632 370.9 177.223 370.9 175.123C370.9 173.023 372.047 168.048 377.772 168.244C381.449 168.362 383.95 169.588 384.862 170.854C385.372 171.561 385.391 172.287 384.842 172.827C383.028 172.375 382.048 173.356 381.724 174.73C381.499 175.702 381.479 176.654 382.704 177.733C384.372 179.185 387.617 180.137 390.195 177.419C393.116 174.348 393.205 172.571 390.803 170.177C389.372 168.744 387.038 167.096 383.89 164.809C376.077 159.118 380.45 151.042 381.979 149.894C383.508 148.746 384.273 145.115 394.774 145.115C405.284 145.115 407 149.315 407 151.807C407 154.29 405.471 158.686 401.461 158.686C397.451 158.686 395.734 156.773 395.734 154.673C395.734 152.573 396.676 151.994 398.588 150.659ZM305.75 172.12C305.75 156.253 315.309 139.953 323.908 130.778C332.496 121.603 337.084 122.565 340.33 124.086C344.202 125.921 346.016 134.056 340.711 142.632C335.908 150.404 325.524 166.183 317.407 171.492C317.466 175.152 318.976 176.114 321.064 175.594C325.417 174.514 332.29 167.007 333.829 164.034L342.428 147.018H354.075C350.448 151.797 342.809 166.33 342.809 166.33C341.849 168.244 338.986 174.171 341.663 174.357C347.614 174.779 352.174 167.096 354.654 162.307L362.292 147.009H373.37C370.014 152.391 366.828 157.879 363.821 163.465L349.496 192.325C343.192 204.758 336.32 210.489 326.956 210.675C317.593 210.861 312.249 206.662 312.249 199.017C312.249 191.373 322.563 190.225 323.711 192.904C321.613 195.19 321.23 201.127 327.917 201.313C334.603 201.51 336.701 197.3 339.378 192.521L345.104 181.246C343.867 182.528 342.383 183.544 340.741 184.234C339.1 184.924 337.335 185.273 335.555 185.259C330.583 185.259 329.819 180.863 329.633 177.998C326.77 181.06 319.319 185.093 316.651 185.259C314.663 185.312 312.705 184.773 311.022 183.711C309.34 182.649 308.01 181.111 307.2 179.293C303.7 181.688 300.808 183.169 298.426 183.994C289.827 186.996 287.787 181.481 286.65 179.705C284.169 182.384 280.346 185.632 276.149 185.632C272.306 185.632 268.669 183.14 267.483 179.774C261.159 185.603 253.168 186.555 249.795 183.719C246.158 180.657 249.03 174.348 250.178 172.061C251.324 169.765 256.1 161.542 256.1 161.542C256.865 160.207 258.777 157.342 257.246 156.007C255.717 154.663 249.795 159.069 247.501 164.034L237.186 184.877H227.441L231.451 177.232C223.705 184.151 208.067 191.216 204.627 179.921C202.165 182.296 197.723 186.054 192.302 186.221C185.998 186.417 184.85 181.638 184.468 180.294C182.939 181.825 178.164 186.417 172.056 186.221C165.938 186.035 166.134 177.811 169.193 172.267C172.252 166.723 178.36 155.252 178.36 155.252C176.262 155.634 172.634 155.448 170.526 154.673L156.015 184.877H144.534C147.397 181.246 164.594 151.042 168.222 143.201H177.772C174.526 144.546 175.105 149.894 180.252 147.411C185.409 144.928 187.89 146.076 189.233 147.028C190.576 147.99 191.91 149.325 188.282 155.438L179.301 171.875C177.007 176.271 183.694 178.184 189.615 166.33L199.361 147.018H209.107L199.558 165.751C197.263 170.53 196.115 174.936 197.646 175.692C198.959 176.349 201.94 175.623 203.978 173.347C204.793 156.38 221.323 146.734 227.058 145.87C234.696 144.722 239.471 149.118 236.226 158.107C233.343 166.095 221.549 171.512 215.401 173.023C215.754 176.055 217.597 176.928 220.087 176.595C225.775 175.819 234.794 168.666 236.794 166.144L246.344 147.028H255.903L254.56 150.09C260.1 146.832 266.404 143.967 269.649 146.459C272.895 148.942 271.179 153.534 268.698 157.921L260.865 170.923C256.903 177.468 264.129 175.78 267.12 172.444C268.365 159.707 278.267 149.796 283.209 146.832C288.935 143.388 294.091 145.301 296.582 148.932L308.229 125.803H319.113C317.201 129.247 304.984 151.797 302.307 156.773C298.906 163.612 297.151 168.107 296.465 171.011C294.769 178.175 299.513 175.643 301.553 174.554C302.994 173.798 304.386 172.984 305.75 172.12ZM215.97 166.625C222.382 164.407 225.5 160.59 227.627 157.921C229.922 155.055 228.587 151.611 224.568 153.907C223.157 154.722 217.862 159.903 215.97 166.625ZM317.671 162.543C328.554 151.572 334.938 138.874 335.751 136.322C336.898 132.692 334.603 131.161 331.741 134.409C321.554 146.135 318.495 154.496 317.671 162.543ZM290.474 154.094C287.61 152.563 283.219 159.255 281.111 163.082C279.003 166.909 276.336 173.788 278.63 174.936C280.915 176.084 283.405 175.319 285.885 170.54L290.277 161.552C291.807 158.49 292.768 155.624 290.474 154.094ZM162.114 126.568L154.241 143.182L163.839 143.201L159.447 151.611L150.241 151.591C147.133 158.127 139.868 173.523 137.054 178.459C129.475 191.775 115.052 210.489 90.6688 210.489C57.2453 210.489 54 181.246 54 175.123C54 168.999 57.2453 143.201 88.0018 143.201C96.5907 143.201 109.582 147.028 109.964 157.921C110.346 168.823 98.3162 168.627 95.8357 168.44C99.4437 162.415 97.5515 154.486 87.8156 154.486C80.5602 154.486 72.5697 161.041 71.5795 169.402C70.6284 177.429 76.1679 193.875 93.5513 192.914C110.16 192.001 118.69 183.356 135.701 151.631L122.955 151.611L126.965 143.201L140.26 143.211L151.986 121.603C148.358 119.307 124.671 101.526 113.209 103.822C106.013 105.264 99.1692 109.376 98.3162 117.58C97.3554 126.765 115.121 133.643 114.356 119.11C122.955 119.493 123.524 124.272 123.337 126.765C123.151 129.257 119.513 138.04 106.915 137.853C94.3061 137.657 84.9527 127.913 84.9527 115.489C84.9527 103.066 97.7377 90.6824 113.974 91.0062C128.592 91.3006 146.182 105.323 157.996 113.694C162.486 109.435 168.516 106.305 175.477 106.305C186.36 106.305 188.664 113.762 188.468 117.58C188.272 121.21 185.968 129.267 175.673 129.816C172.016 130.013 166.859 128.766 162.114 126.568ZM166.702 119.061C168.8 120.592 172.811 122.741 175.673 122.368C177.575 122.113 180.252 120.268 180.252 118.541C180.252 116.814 180.634 114.332 174.33 114.332C171.428 114.332 168.732 116.608 166.702 119.061ZM361.144 191.795C360.387 191.795 359.636 191.645 358.937 191.355C358.237 191.065 357.6 190.64 357.065 190.104C356.528 189.567 356.103 188.931 355.814 188.23C355.524 187.529 355.374 186.778 355.374 186.02C355.374 185.262 355.524 184.511 355.814 183.81C356.103 183.109 356.528 182.473 357.065 181.937C357.6 181.4 358.237 180.975 358.937 180.685C359.636 180.394 360.387 180.245 361.144 180.245C364.291 180.245 366.968 182.698 366.968 186.005C366.968 189.351 364.291 191.795 361.144 191.795ZM356.448 186.005C356.448 188.782 358.508 190.833 361.144 190.833C361.771 190.835 362.392 190.71 362.969 190.466C363.547 190.222 364.068 189.864 364.504 189.413C364.941 188.962 365.281 188.428 365.505 187.843C365.73 187.257 365.834 186.632 365.812 186.005C365.83 185.381 365.723 184.759 365.497 184.177C365.269 183.595 364.929 183.064 364.493 182.617C364.058 182.169 363.537 181.814 362.962 181.571C362.386 181.329 361.769 181.205 361.144 181.207C360.518 181.203 359.897 181.325 359.319 181.566C358.742 181.806 358.218 182.161 357.779 182.609C357.341 183.057 356.997 183.588 356.768 184.172C356.539 184.755 356.431 185.379 356.448 186.005ZM359.928 186.466V189.351H358.919V182.688H361.449C363.017 182.688 363.801 183.267 363.801 184.582C363.801 185.78 363.047 186.29 362.076 186.417L363.968 189.351H362.841L361.086 186.466H359.928ZM359.928 185.613H361.135C361.988 185.613 362.752 185.554 362.752 184.523C362.752 183.699 362.008 183.542 361.302 183.542H359.928V185.613Z" fill="#3697EC"/>
</svg>
