<svg width="462" height="290" viewBox="0 0 462 290" fill="none" xmlns="http://www.w3.org/2000/svg">
<rect width="462" height="290" fill="#FAFAFA"/>
<path d="M277.913 194.024H286.065V199.565H272.262V174.519H277.913V194.024ZM262.946 180.046V184.237H269.328V189.725H262.946V194.024H269.68V199.565H257.337V174.519H269.68V180.046H262.946ZM250.319 199.565H244.668V180.046H240.004V174.519H254.983V180.046H250.319V199.565ZM220.793 186.589C220.732 188.538 221.375 190.443 222.604 191.955C223.7 193.293 225.227 194.077 226.917 194.077C228.607 194.077 230.135 193.293 231.229 191.955C232.45 190.438 233.088 188.535 233.028 186.589C233.025 184.89 232.384 183.255 231.229 182.007C230.135 180.79 228.607 180.006 226.917 180.006C225.227 180.006 223.7 180.79 222.604 182.007C221.445 183.252 220.799 184.888 220.793 186.589ZM238.868 186.589C238.868 190.63 237.611 194.077 235.529 196.51C233.365 198.943 230.405 200.39 226.904 200.39C223.401 200.39 220.441 198.943 218.278 196.51C215.987 193.721 214.786 190.196 214.898 186.589C214.898 182.791 216.304 179.574 218.548 177.303C220.779 175.032 223.767 173.694 226.904 173.694C230.04 173.694 233.015 175.032 235.259 177.303C237.636 179.804 238.932 183.139 238.868 186.589ZM206.854 184.196V174.519H212.491V199.565H206.854V189.292H199.391V199.565H193.753V174.519H199.391V184.196H206.854Z" fill="#3697EC"/>
<path d="M322.988 156.271C323.376 156.4 323.774 156.5 324.177 156.568L324.083 157.177C321.383 176.272 312.531 193.967 298.868 207.581C290.64 215.843 280.859 222.398 270.09 226.872C259.319 231.345 247.772 233.648 236.111 233.648C224.448 233.648 212.901 231.345 202.13 226.872C191.361 222.398 181.581 215.843 173.352 207.581C159.682 193.963 150.821 176.265 148.111 157.163C148.057 156.757 147.962 156.338 147.881 155.284C148.279 155.611 148.739 155.855 149.233 156.001C149.26 156.19 149.314 156.987 149.355 157.163C152.04 175.939 160.757 193.335 174.19 206.729C182.308 214.885 191.958 221.357 202.585 225.773C213.213 230.19 224.608 232.463 236.117 232.463C247.626 232.463 259.021 230.19 269.649 225.773C280.276 221.357 289.926 214.885 298.043 206.729C311.695 193.119 320.463 175.38 322.988 156.271ZM236.083 57.193C224.582 57.1955 213.194 59.4678 202.573 63.8795C191.953 68.2912 182.307 74.7556 174.19 82.9019C166.674 90.4267 160.578 99.2458 156.195 108.935H154.911C159.351 98.9165 165.613 89.8093 173.379 82.0774C181.605 73.8125 191.383 67.2541 202.153 62.7789C212.921 58.3038 224.468 56 236.131 56C247.792 56 259.34 58.3038 270.109 62.7789C280.878 67.2541 290.656 73.8125 298.882 82.0774C307.723 90.8944 314.61 101.473 319.094 113.125C318.753 113.374 318.435 113.654 318.148 113.963C313.706 102.31 306.861 91.7222 298.058 82.8884C289.925 74.7414 280.265 68.2784 269.63 63.8691C258.996 59.4599 247.596 57.1912 236.083 57.193Z" fill="#3697EC"/>
<path d="M318.35 157.177C315.688 174.752 307.451 191.008 294.854 203.553C287.157 211.295 278.005 217.439 267.925 221.633C257.845 225.826 247.034 227.984 236.117 227.984C225.199 227.984 214.389 225.826 204.309 221.633C194.228 217.439 185.077 211.295 177.381 203.553C164.788 191.011 156.564 174.751 153.924 157.177C153.857 156.893 153.857 156.825 153.816 156.528C153.394 156.479 152.975 156.411 152.559 156.325L152.694 157.163C155.351 175.077 163.72 191.654 176.556 204.431C184.369 212.272 193.653 218.493 203.877 222.738C214.099 226.983 225.061 229.168 236.131 229.168C247.201 229.168 258.161 226.983 268.385 222.738C278.608 218.493 287.892 212.272 295.705 204.431C308.522 191.647 316.883 175.079 319.553 157.177L319.837 155.406C319.445 155.271 319.081 155.122 318.716 154.973L318.35 157.177ZM236.083 61.694C259.013 61.694 279.779 71.0206 294.839 86.0647C303.776 94.9586 310.567 105.771 314.7 117.681C315.01 117.235 315.228 116.991 315.552 116.586C311.331 104.797 304.549 94.0918 295.691 85.2403C287.874 77.3905 278.583 71.1621 268.352 66.9125C258.12 62.663 247.15 60.4761 236.069 60.4775C225.005 60.4856 214.052 62.6772 203.837 66.9265C193.622 71.1759 184.347 77.3994 176.543 85.2403C169.66 92.1269 164.009 100.141 159.832 108.935H161.13C165.224 100.458 170.718 92.7306 177.381 86.0783C185.08 78.3532 194.229 72.2229 204.302 68.0386C214.375 63.8542 225.175 61.6982 236.083 61.694ZM337.103 167.814C337.692 167.814 338.276 167.698 338.82 167.471C339.366 167.245 339.86 166.913 340.276 166.494C340.691 166.076 341.021 165.58 341.244 165.034C341.467 164.488 341.58 163.903 341.577 163.313C341.574 162.426 341.308 161.559 340.813 160.822C340.317 160.086 339.615 159.513 338.794 159.176C337.972 158.838 337.069 158.752 336.2 158.928C335.33 159.104 334.531 159.534 333.906 160.163C333.28 160.793 332.854 161.594 332.683 162.464C332.513 163.335 332.605 164.238 332.947 165.057C333.289 165.875 333.866 166.575 334.607 167.065C335.345 167.556 336.214 167.817 337.103 167.814ZM337.103 167.274C336.586 167.275 336.074 167.175 335.595 166.979C335.117 166.783 334.683 166.495 334.317 166.131C333.95 165.767 333.659 165.334 333.459 164.858C333.259 164.381 333.156 163.87 333.155 163.354C333.152 162.837 333.252 162.325 333.448 161.847C333.644 161.37 333.933 160.935 334.298 160.568C334.661 160.202 335.094 159.911 335.57 159.711C336.048 159.512 336.558 159.409 337.075 159.407C338.118 159.403 339.121 159.814 339.861 160.549C340.601 161.284 341.019 162.283 341.023 163.327C341.026 164.37 340.615 165.372 339.88 166.112C339.145 166.852 338.146 167.27 337.103 167.274Z" fill="#3697EC"/>
<path d="M336.048 163.029V161.272H337.467C338.089 161.272 338.779 161.367 338.779 162.137C338.779 163.151 337.683 163.029 336.98 163.029H336.048ZM337.819 163.53C338.711 163.503 339.4 163.138 339.4 162.151C339.4 161.732 339.211 161.286 338.832 161.069C338.459 160.872 338.037 160.783 337.616 160.813H335.439V165.827H336.048V163.53H337.17L338.603 165.841H339.332L337.819 163.53ZM279.955 151.364L282.307 160.029C282.307 160.029 278.386 164.651 270.316 164.651C262.203 164.651 258.485 159.082 258.797 152.311C259.107 146.147 262.136 141.849 262.365 131.414C262.433 128.399 261.419 124.912 259.54 123.344L261.689 115.031C266.989 115.464 273.762 109.152 274.898 103.745C276.033 98.5409 273.141 95.3239 267.801 95.1211H264.989L250.441 149.445H236.759L250.171 99.5276C250.171 99.5276 247.034 100.541 245.384 100.541C243.695 100.541 241.896 99.879 241.896 99.879L243.898 92.3907C243.898 92.3907 247.615 92.7827 250.603 91.0931C253.659 89.3765 256.443 87.1056 256.443 87.1056L269.409 87.0245C278.386 86.984 286.931 94.9048 286.147 104.218C285.403 112.72 278.035 121.222 269.449 122.006C272.857 124.52 273.654 131.562 273.533 135.05C273.289 141.551 272.776 144.498 272.397 147.782C272.045 150.567 273.262 152.919 276.048 152.919C277.953 152.919 279.955 151.364 279.955 151.364Z" fill="#3697EC"/>
<path d="M297.192 110.882C287.16 110.882 280.076 120.884 277.872 129.697C275.641 138.442 278.819 149.81 289.946 149.81C301.005 149.81 308.602 139.74 309.941 129.697C311.117 120.952 307.751 110.882 297.192 110.882ZM299.626 129.846C298.45 133.887 294.839 141.213 289.904 141.213C284.564 141.213 287.391 131.576 288.012 129.805C290.054 124.277 293.623 119.032 297.03 119.032C301.248 119.032 301.194 124.358 299.626 129.846ZM214.695 113.436C214.695 113.436 211.991 110.922 207.989 110.922C200.418 110.922 192.982 120.019 190.157 129.575C188.088 136.55 187.683 149.715 198.12 149.715C202.122 149.715 205.718 147.174 205.718 147.174L205.245 149.513H217.44L232.879 91.3904H220.496L214.695 113.436ZM210.545 129.873C209.45 133.806 207.097 141.132 202 141.132C197.417 141.132 199.256 132.049 199.999 129.656C201.797 123.979 205.57 119.073 208.895 119.073C213.41 119.073 211.477 126.507 210.545 129.873ZM326.327 141.443C330.329 141.443 335.493 137.131 335.493 137.131L333.223 146.701C333.223 146.701 329.464 149.769 324.056 149.769C312.969 149.769 310.293 138.361 312.145 129.629C314.457 119.005 323.123 111.125 331.424 111.125C338.171 111.125 341.185 115.396 341.185 115.396L339.022 123.79C339.022 123.79 336.819 118.965 332.519 118.965C328.572 118.965 324.677 124.263 323.041 129.94C321.973 133.455 320.676 141.443 326.327 141.443ZM135.957 87.3624L119.3 149.364H105.659L113.5 120.06H104.361L96.5197 149.364H83L96.2357 99.3653C96.2357 99.3653 95.1813 100.663 90.909 100.663C89.8815 100.663 88.7459 100.311 88.7459 100.311L90.6792 93.5397C90.6792 93.5397 94.7486 93.5666 97.3038 91.6608C100.238 89.3629 101.657 87.3624 101.657 87.3624H113.149L106.916 110.53H116.083L122.275 87.376H135.957V87.3624ZM191.211 121.925C191.211 121.925 189.292 121.019 187.723 120.952C186.628 120.911 181.856 121.695 180.125 127.724L174.325 149.486H162.915L172.987 111.233H184.479L183.532 114.491C183.532 114.491 187.737 111.314 191.766 111.314C193.104 111.314 193.767 111.828 193.767 111.828L191.211 121.925Z" fill="#3697EC"/>
<path d="M218.968 151.472H202.811L202.974 150.77C201.365 151.283 199.918 151.756 198.08 151.716C195.939 151.725 193.84 151.13 192.023 149.999C193.713 152.648 196.511 154.46 200.878 154.581C202.717 154.622 204.163 154.149 205.731 153.649L205.623 154.338H221.725L237.84 93.5936H234.339L218.968 151.472ZM110.945 122.046H105.889L98.0069 151.364H84.8252L84.0952 154.135L100.819 154.216L108.66 124.898H110.175L110.945 122.046ZM92.6667 105.177L93.3832 102.461C92.4213 102.603 91.4479 102.653 90.4765 102.609L89.9762 104.407C90.9091 104.691 91.7608 104.975 92.6667 105.177ZM190.319 123.682C189.527 123.266 188.657 123.018 187.764 122.952C184.668 122.952 182.829 125.655 182.005 128.291L175.813 151.432H160.373L160.576 150.688C158.332 151.824 155.952 152.446 153.438 152.527C150.755 152.547 148.164 151.558 146.177 149.756C143.496 151.532 140.335 152.447 137.119 152.378C135.119 152.221 133.199 151.525 131.563 150.364C132.492 151.755 133.727 152.916 135.172 153.76C136.617 154.603 138.236 155.106 139.904 155.23C143.122 155.352 146.286 154.338 148.949 152.608C151.112 154.527 153.424 155.311 156.196 155.392C158.683 155.321 161.122 154.693 163.334 153.554L163.145 154.297H178.625L184.817 131.143C185.493 128.913 186.993 126.602 189.346 125.98C189.645 125.203 189.97 124.437 190.319 123.682Z" fill="#3697EC"/>
<path d="M161.698 138.307C162.644 137.753 163.577 137.212 164.334 136.509L170.486 113.004H168.336L161.698 138.307ZM309.779 137.523C306.291 145.512 299.071 151.513 289.946 151.743C286.88 151.887 283.859 150.96 281.401 149.121L284.497 160.515C280.739 164.746 275.953 166.625 270.301 166.598C267.298 166.685 264.343 165.83 261.852 164.151C264.109 167.49 267.989 169.45 273.086 169.477C278.724 169.517 283.511 167.625 287.283 163.448L284.172 151.986C286.632 153.823 289.651 154.75 292.718 154.608C300.815 154.392 307.373 149.702 311.185 143.106C310.477 141.313 310.004 139.437 309.779 137.523ZM260.351 132.427C260.351 130.184 260.107 126.669 258.864 125.926L251.969 151.432H238.733L237.963 154.297H254.741L260.324 133.644L260.351 132.427ZM247.346 102.298C246.433 102.509 245.493 102.577 244.56 102.501L243.682 102.38L243.262 103.947C244.452 104.394 245.493 104.786 246.615 105.069L247.346 102.298ZM286.147 95.1211C289.527 101.433 288.58 107.975 284.659 114.126C286.362 112.558 288.307 111.275 290.419 110.327C291.534 106.192 291.012 101.786 288.959 98.0271C287.808 95.8482 286.241 93.9152 284.348 92.3365C285.011 93.2017 285.619 94.1343 286.147 95.1211ZM312.01 123.682C312.429 122.668 312.889 121.722 313.375 120.844C312.448 118.319 310.826 116.107 308.697 114.464C310.454 116.91 311.55 120.059 312.01 123.682ZM332.316 120.952C328.517 121.262 325.935 127.372 325.069 129.967C324.204 132.508 322.717 139.415 326.327 139.456L326.854 139.429C326.81 137.203 327.148 134.985 327.855 132.873C328.72 130.251 331.303 124.142 335.101 123.831C335.833 123.775 336.564 123.93 337.211 124.277C336.007 122.344 334.412 120.789 332.316 120.952ZM197.363 113.788C196.779 113.439 196.131 113.214 195.457 113.125L194.51 116.87C195.416 115.775 196.362 114.734 197.363 113.788ZM109.499 108.57H113.027L118.07 89.7955H114.514L109.499 108.57ZM351.879 139.01L348.662 151.473H337.846L337.088 154.338H351.433L353.826 145.147C353.758 142.93 353.353 139.618 351.879 139.01ZM359.369 110.571C360.653 110.003 361.925 109.57 363.249 109.327L367.265 94.5263H363.614L359.369 110.571ZM376.607 119.032C376.377 126.791 371.24 133.292 364.345 136.388C366.372 139.997 367.129 144.89 367.197 149.08C367.197 150.175 367.318 153 368.846 152.838C369.24 152.805 369.625 152.699 369.982 152.527L369.969 151.946C369.888 147.742 369.13 142.849 367.102 139.253C373.997 136.158 379.176 129.656 379.364 121.898C379.269 118.1 377.783 115.356 375.214 113.72C376.134 115.339 376.614 117.17 376.607 119.032ZM374.876 153.635L377.241 161.353C373.592 164.449 369.644 166.8 364.696 166.76C362.211 166.777 359.78 166.032 357.733 164.624C358.808 166.205 360.263 167.491 361.963 168.365C363.664 169.238 365.556 169.672 367.468 169.626C372.402 169.653 376.364 167.314 380 164.219L376.201 151.837C375.809 152.392 375.376 153.04 374.876 153.635ZM273.1 123.304C274.547 125.98 275.182 129.062 275.412 132.049C275.696 130.44 276.048 128.926 276.493 127.453C276.299 127.019 276.093 126.59 275.872 126.169C276.264 126.047 276.669 125.912 277.061 125.764L277.251 125.263C278.035 123.155 279.089 121.114 280.495 119.032C278.371 120.978 275.847 122.436 273.1 123.304ZM277.143 150.729L277.156 150.621C277.385 148.783 277.602 146.971 277.792 145.147C277.495 144.631 277.22 144.103 276.967 143.565C276.163 141.674 275.621 139.682 275.357 137.645C275.17 141.027 274.844 144.4 274.384 147.755C274.181 149.202 274.222 150.932 276.033 150.932C276.412 150.93 276.788 150.862 277.143 150.729ZM266.084 111.909L269.274 99.987H270.45C271.397 99.987 272.248 100.095 272.992 100.339C272.437 98.1218 270.437 97.0945 267.665 97.1215H266.489L262.23 113.071C263.588 112.994 264.909 112.596 266.084 111.909ZM204.813 132.617C205.57 130.467 207.327 126.129 209.787 124.493C210.045 122.655 209.99 121.033 208.895 121.033C205.447 121.073 202.933 127.115 202.041 129.737C201.568 131.116 199.648 139.105 202.041 139.145C202.611 139.142 203.171 138.988 203.663 138.699C203.798 136.307 204.529 133.387 204.813 132.617ZM143.811 132.589C144.528 130.116 146.38 125.439 149.192 124.196C149.192 122.465 148.854 121.019 147.786 121.019C144.217 121.019 141.838 126.858 141.04 129.724C140.526 131.562 139.35 138.969 142.527 139.132C142.773 139.119 143.016 139.064 143.244 138.969C143.116 136.826 143.307 134.676 143.811 132.589ZM292.866 132.86C293.907 130.251 296.178 125.601 298.598 124.236C298.693 122.438 298.368 120.938 297.03 120.992C294.204 121.1 291.271 126.939 290.054 130.008C289.702 130.941 286.917 139.253 289.904 139.213C290.407 139.211 290.902 139.11 291.365 138.915C291.622 136.469 292.65 133.414 292.866 132.86ZM363.478 123.101C362.75 124.37 361.689 125.417 360.41 126.129C358.661 127.29 356.657 128.013 354.57 128.237C355.281 125.995 356.766 124.079 358.761 122.83C359.767 122.087 360.898 121.529 362.1 121.181C363.83 120.789 364.182 121.573 363.478 123.101Z" fill="#3697EC"/>
<path d="M128.818 129.616C129.629 126.575 130.9 123.628 132.496 121.019L140.878 89.7819H137.322L120.815 151.364H107.376L106.7 154.135L123.586 154.216L127.831 138.388C127.718 135.431 128.051 132.474 128.818 129.616Z" fill="#3697EC"/>
<path d="M158.994 140.943L166.714 111.274H154.871L153.857 114.491C153.505 113.585 150.49 111.003 146.935 111.003C141.283 111.003 136.065 115.22 132.509 121.019C130.87 123.691 129.627 126.587 128.818 129.616C128.051 132.474 127.718 135.431 127.831 138.388C128.25 144.998 131.928 150.418 137.822 150.418C142.676 150.418 146.448 147.093 146.448 147.093C146.448 147.093 148.57 150.54 153.424 150.54C158.318 150.54 161.86 147.526 161.86 147.526L163.888 139.213C162.685 140.145 160.643 141.092 158.994 140.943ZM150.531 129.778C149.977 132.711 146.853 141.132 142.527 141.132C137.674 141.132 138.187 133.103 139.039 129.575C139.945 125.926 143.081 119.073 147.813 119.073C151.991 119.073 151.112 126.872 150.531 129.778ZM340.536 135.563C339.451 136.51 338.342 137.429 337.211 138.321L334.967 147.836C331.877 150.356 328.016 151.74 324.029 151.756C321.021 151.782 318.079 150.865 315.62 149.134C318.093 152.635 321.852 154.5 326.8 154.622C330.883 154.703 334.601 153.135 337.738 150.702L338.022 149.526H336.845L340.536 135.563ZM343.335 114.95L340.131 127.359C340.82 128.507 341.347 129.765 341.78 130.846L345.416 117.018C344.795 116.259 344.098 115.566 343.335 114.95Z" fill="#3697EC"/>
<path d="M372.564 152.919C372.564 152.919 370.996 154.838 368.576 154.838C366.845 154.838 365.237 153.122 365.196 149.121C365.196 145.944 364.345 138.023 361.045 135.563C367.86 133.401 374.605 127.102 374.605 119.019C374.605 113.382 370.604 111.071 365.629 111.071C361.437 111.071 357.354 113.774 356.233 114.639L362.384 91.5931H352.109L345.416 117.018L341.78 130.846L340.536 135.563L336.859 149.513H347.134L352.663 128.116C353.522 125.132 355.465 122.577 358.111 120.952C359.395 120.139 360.822 119.58 362.317 119.303C365.331 118.789 366.466 121.06 365.413 123.574C364.563 125.324 363.212 126.783 361.533 127.764C359.139 129.332 356.246 130.278 354.123 130.197L352.366 137.023C355.462 138.361 355.894 143.457 355.813 146.228C355.733 150.337 355.462 151.162 355.151 154.135C354.489 160.488 359.153 164.8 364.722 164.8C370.293 164.8 374.997 160.677 374.997 160.677L372.564 152.919Z" fill="#3697EC"/>
</svg>
