<?xml version="1.0" standalone="no"?>
<!DOCTYPE svg PUBLIC "-//W3C//DTD SVG 20010904//EN"
 "http://www.w3.org/TR/2001/REC-SVG-20010904/DTD/svg10.dtd">
<svg version="1.0" xmlns="http://www.w3.org/2000/svg"
 width="256.000000pt" height="256.000000pt" viewBox="0 0 256.000000 256.000000"
 preserveAspectRatio="xMidYMid meet">
<metadata>
Created by potrace 1.14, written by Peter Selinger 2001-2017
</metadata>
<g transform="translate(0.000000,256.000000) scale(0.100000,-0.100000)"
fill="#000000" stroke="none">
<path d="M935 2341 c-75 -19 -131 -67 -164 -141 -23 -51 -28 -104 -9 -98 7 3
17 23 23 46 15 60 67 128 117 152 49 24 111 28 133 10 8 -7 15 -10 15 -6 0 19
61 -29 76 -59 15 -32 41 -45 57 -29 11 12 -32 61 -80 92 -51 33 -118 46 -168
33z"/>
<path d="M1865 2188 c-3 -7 4 -42 15 -78 15 -50 19 -56 15 -25 -3 22 -6 57 -7
78 -2 36 -14 49 -23 25z"/>
<path d="M1411 2086 c-43 -15 -107 -69 -126 -106 -64 -124 -20 -271 98 -326
167 -77 347 32 347 211 0 44 -45 150 -76 177 -58 51 -168 71 -243 44z m69 -41
c0 -8 -4 -15 -9 -15 -5 0 -16 -3 -24 -6 -12 -4 -14 0 -10 15 6 24 43 29 43 6z
m60 0 c0 -8 -9 -15 -20 -15 -11 0 -20 7 -20 15 0 8 9 15 20 15 11 0 20 -7 20
-15z m-60 -50 c0 -19 -8 -28 -27 -36 l-28 -11 25 -13 c29 -16 62 -19 76 -6 5
5 20 12 32 16 21 6 23 4 21 -22 -2 -15 5 -40 14 -54 60 -90 3 -199 -104 -199
-59 0 -103 33 -120 89 -13 42 0 99 26 121 9 7 12 22 9 40 -4 15 -1 31 5 34 6
4 11 16 11 26 0 19 24 39 48 40 6 0 12 -11 12 -25z m74 9 c12 -31 6 -44 -19
-44 -14 0 -25 3 -25 8 0 4 -3 17 -6 30 -5 18 -2 22 19 22 14 0 28 -7 31 -16z
m33 -26 c-3 -8 -6 -5 -6 6 -1 11 2 17 5 13 3 -3 4 -12 1 -19z"/>
<path d="M1901 2024 c0 -11 3 -14 6 -6 3 7 2 16 -1 19 -3 4 -6 -2 -5 -13z"/>
<path d="M1195 1930 c-33 -151 37 -294 175 -358 73 -34 172 -35 248 -2 66 28
144 111 166 176 17 50 20 165 6 199 -5 13 -6 2 -3 -30 7 -64 -12 -136 -37
-142 -10 -3 -30 -23 -45 -44 -99 -151 -321 -151 -420 0 -15 21 -35 41 -45 44
-25 6 -44 78 -37 140 7 53 2 63 -8 17z"/>
<path d="M503 1829 c-182 -33 -261 -260 -135 -392 90 -95 263 -98 349 -5 33
35 63 108 63 155 0 87 -57 186 -127 222 -36 19 -105 28 -150 20z m27 -49 c0
-11 5 -20 10 -20 6 0 10 9 10 21 0 27 32 22 45 -9 5 -12 15 -22 21 -22 16 0
43 -33 47 -57 1 -11 11 -32 21 -47 81 -125 -44 -299 -184 -257 -82 24 -140
110 -126 184 9 46 63 154 85 169 10 7 23 23 30 36 15 27 41 29 41 2z"/>
<path d="M1960 1810 c0 -5 5 -10 11 -10 5 0 7 5 4 10 -3 6 -8 10 -11 10 -2 0
-4 -4 -4 -10z"/>
<path d="M1976 1750 c7 -40 9 -43 23 -39 5 2 1 20 -10 39 l-20 35 7 -35z"/>
<path d="M265 1719 c-4 -6 -5 -12 -2 -15 2 -3 7 2 10 11 7 17 1 20 -8 4z"/>
<path d="M816 1717 c3 -10 9 -15 12 -12 3 3 0 11 -7 18 -10 9 -11 8 -5 -6z"/>
<path d="M246 1668 c-3 -13 -6 -53 -6 -89 0 -113 64 -213 173 -271 35 -19 58
-23 132 -23 78 0 97 4 140 27 104 55 166 157 166 274 0 36 -2 69 -5 72 -3 3
-6 -12 -6 -34 0 -60 -19 -116 -41 -121 -10 -3 -34 -27 -53 -53 -65 -91 -200
-127 -302 -81 -43 20 -110 82 -119 112 -3 10 -16 19 -28 21 -30 4 -50 67 -44
136 6 55 3 66 -7 30z"/>
<path d="M2161 1053 c34 -126 37 -135 38 -106 2 48 -47 213 -63 213 -2 0 9
-48 25 -107z"/>
<path d="M1660 1119 c-81 -37 -121 -87 -141 -178 -14 -68 8 -148 57 -199 l35
-37 -32 47 c-40 59 -50 136 -25 202 16 42 102 143 113 132 3 -3 18 1 34 9 38
20 58 19 116 -6 83 -35 137 -119 137 -214 0 -68 -18 -111 -68 -158 l-31 -30
33 23 c90 61 118 185 67 298 -52 116 -179 164 -295 111z"/>
<path d="M2021 1030 c14 -31 19 -36 19 -24 0 6 -7 19 -16 30 -14 18 -14 18 -3
-6z"/>
<path d="M2044 922 c0 -74 -15 -112 -43 -112 -11 0 -24 -12 -31 -30 -18 -43
-84 -96 -143 -116 -59 -20 -128 -14 -184 15 -40 20 -113 92 -113 111 0 6 -11
15 -25 20 -31 12 -45 45 -46 113 l-1 52 -10 -43 c-21 -96 37 -228 129 -293 60
-42 150 -65 215 -55 100 15 196 85 240 175 24 49 36 168 21 208 -6 15 -8 2 -9
-45z"/>
<path d="M2206 890 c4 -19 10 -44 14 -55 7 -16 9 -17 14 -5 4 9 -3 33 -14 55
l-21 40 7 -35z"/>
<path d="M745 871 c-147 -36 -225 -200 -161 -336 13 -27 33 -59 46 -70 22 -19
22 -18 -3 20 -35 53 -47 114 -35 167 14 65 70 144 120 168 42 20 122 27 132
11 3 -4 19 -11 36 -14 19 -4 34 -15 39 -30 5 -12 17 -29 27 -37 27 -23 54 -91
54 -138 0 -54 -22 -108 -63 -151 l-32 -34 32 22 c88 60 114 191 60 302 -31 65
-79 103 -147 118 -51 12 -63 12 -105 2z"/>
<path d="M1087 689 c7 -68 -11 -139 -35 -139 -9 -1 -33 -24 -52 -52 -103 -152
-322 -142 -422 20 -11 17 -26 32 -33 32 -24 0 -39 42 -39 112 -1 83 -14 57
-15 -29 -3 -220 209 -369 415 -292 138 52 221 197 194 341 -13 69 -20 72 -13
7z"/>
<path d="M2233 617 c-22 -48 45 -27 -943 -292 -627 -169 -699 -186 -734 -177
-34 9 -36 8 -23 -6 41 -40 81 -32 737 143 344 93 690 181 770 197 80 15 159
33 175 40 40 15 92 54 105 78 9 17 6 17 -26 -5 -20 -14 -46 -25 -57 -25 -19 0
-19 1 -3 19 10 11 16 27 14 37 -2 14 -5 13 -15 -9z"/>
</g>
</svg>
